<?xml version="1.0" encoding="utf-8"?>
<!-- Generator: Adobe Illustrator 24.1.0, SVG Export Plug-In . SVG Version: 6.00 Build 0)  -->
<svg version="1.1" id="Layer_1" xmlns="http://www.w3.org/2000/svg" xmlns:xlink="http://www.w3.org/1999/xlink" x="0px" y="0px"
	 viewBox="0 0 289 151.2" style="enable-background:new 0 0 289 151.2;" xml:space="preserve">
<style type="text/css">
	.st0{fill:#FFFFFF;}
	.st1{fill:#F99300;}
	.st2{fill:#FFD489;}
	.st3{fill:#E32831;}
	.st4{fill:#F5C156;}
	.st5{fill:#FF4C65;}
	.st6{fill:#B71620;}
	.st7{fill:#5F0000;}
	.st8{fill:#FF7705;}
	.st9{fill:#AE4200;}
	.st10{fill:#FF3C48;}
	.st11{fill:#AA0B25;}
	.st12{fill:#4B0914;}
	.st13{fill:none;stroke:#4B0914;stroke-width:0.3727;stroke-miterlimit:10;}
	.st14{fill:none;stroke:#4B0914;stroke-width:0.75;stroke-miterlimit:10;}
	.st15{fill:none;stroke:#4B0914;stroke-width:0.48;stroke-miterlimit:10;}
</style>
<g>
	<path class="st0" d="M37.1,65.9l5.5-10.2c0.5-1,1.4-2.6,2.4-4.7l4.1-8c0.3-0.8,0.6-1.4,0.9-1.7c0.3-0.3,0.6-0.4,1-0.4
		c0.9,0,1.4,0.4,1.4,1.3c0,0.2-0.3,0.9-1,2.1l-0.8,1.4L27.9,86.6L1.7,41.4h21.6L37.1,65.9z"/>
	<path class="st0" d="M71.4,83.5H55.9V50h15.5V83.5z M69.6,43.4c0,1.5-0.6,2.6-1.9,3.4c-1,0.7-2.4,1-3.9,1c-4,0-6-1.4-6-4.3
		c0-1.5,0.7-2.7,2.1-3.4c1-0.6,2.3-0.9,4-0.9c1.5,0,2.8,0.3,3.9,0.9C69,40.9,69.6,42,69.6,43.4"/>
	<path class="st0" d="M89.5,67.5V77c0,1.8,0.1,2.9,0.4,3.4c0.5,1,1.4,1.4,2.9,1.4c3,0,5.9-0.9,8.5-2.8c0.8-0.7,1.8-1.8,3.3-3.1
		c1.4-1.4,2.5-2.4,3.2-3.1c0.8,0,1.3,0.5,1.3,1.4c0,1.4-1.2,3-3.6,4.9c-1.9,1.4-3.7,2.5-5.5,3.3c-2.6,1.1-5.1,1.6-7.3,1.6
		c-4.9,0-9-1.7-12.4-5.1s-5-7.6-5-12.4s1.7-8.9,5-12.3c3.4-3.4,7.5-5.1,12.3-5.1c5.2,0,9.5,1.8,12.7,5.3c3.1,3.5,4.7,7.8,4.7,13.1
		C110,67.5,89.5,67.5,89.5,67.5z M97.3,65.5V55.3c0-1.7-0.3-2.8-0.8-3.4C96,51.3,94.9,51,93.1,51s-2.9,0.5-3.3,1.6
		c-0.2,0.5-0.3,1.9-0.3,4.1v8.9c0.8,0.1,1.4,0.1,1.8,0.1h4.6C96.7,65.5,97.1,65.5,97.3,65.5"/>
	<path class="st0" d="M133,39.1v3.6v7l3.1,0.1h1.6h0.4c0.8,0,1.3,0.4,1.3,1.1v0.5c-0.1,0.2-0.4,0.3-1,0.3H133v24.2
		c0,2.8,0.5,4.1,1.6,4.1c0.7,0,1.4-0.5,2.3-1.4c0.9-1,1.5-2,2-3.1c0.4-1.1,0.9-1.7,1.5-1.7c0.7,0,1,0.4,1,1.3c0,1.9-1.2,3.9-3.5,5.9
		c-2.5,2.1-5.6,3.1-9.4,3.1c-7.4,0-11-4.2-11-12.7V51.7h-3.8c-0.7,0-1-0.1-1-0.4l0.1-0.6c0-0.6,0.5-0.9,1.6-0.9h3v-3.4l6-2.5
		C127.2,42.2,130.4,40.6,133,39.1"/>
	<path class="st0" d="M183.4,61.7V42.6c0-1.1,0.4-1.6,1.1-1.6c0.5,0,0.8,0.1,0.9,0.4c0.1,0.5,0.1,0.9,0.1,1.3v8.5V85
		c-10.7-7-23.3-14.3-37.6-21.9v19.7c0,0.8-0.4,1.3-1.1,1.3c-0.5,0-0.8-0.3-1-1V39.8c8.7,5.3,18.5,11,29.3,17L183.4,61.7z"/>
	<path class="st0" d="M211.1,63.2v-5.9c0-2.4-0.3-3.9-0.9-4.7c-0.7-0.8-2.2-1.2-4.5-1.2c-2.4,0-4.4,0.6-6.2,1.7l-4.6,3.8
		c-1,0-1.5-0.5-1.5-1.6c0-1.3,1.3-2.7,4-4c2.5-1.3,5.9-1.9,10.3-1.9c8.9,0,14.3,1.7,16.3,5.2c0.9,1.6,1.4,4.3,1.4,8.1v12.2v3.5
		c0,1.1,0,2,0.2,2.6s0.5,1.4,1,2.3h-15.4v-2.9c-3.2,2.5-6.6,3.8-10.2,3.8c-3.2,0-5.9-1.1-8.2-3.4c-2.2-2.3-3.4-5-3.4-8.2
		c0-3.6,1.3-6.4,4-8.5c2.5-2,5.5-2.9,9.1-2.9C205.3,61.1,208.1,61.8,211.1,63.2 M211.1,65.4c-2.1-1.3-3.9-1.9-5.4-1.9
		c-1.3,0-2.2,0.7-2.4,2.1c0,0.3-0.1,1.5-0.1,3.8v8.9c0,1.2,0.2,1.9,0.7,2.3c0.3,0.3,0.9,0.4,1.6,0.4c1.8,0,3.6-1,5.6-3L211.1,65.4
		L211.1,65.4z"/>
	<path class="st0" d="M245.2,52.6c1-0.5,2.5-1.4,4.5-2.4c1.5-0.8,3-1.2,4.4-1.2c1.7,0,3.8,0.6,6.4,1.8c2.2,1,3.5,1.8,3.8,2.1
		c3.8-2.6,7.5-3.9,11.2-3.9c2.3,0,4.3,0.5,6.1,1.4c2.1,1.1,3.5,2.6,4.1,4.6c0.5,1.5,0.8,3.8,0.8,6.9v21.4h-15.4V57.2
		c0-1.3-0.1-2.3-0.3-2.8c-0.3-0.9-1-1.4-2.1-1.4c-0.4,0-0.9,0.2-1.4,0.5c-0.8,0.5-1.3,0.8-1.6,0.9V60v23.2h-15.4V57.5
		c0-1.7,0-2.7-0.1-2.9c-0.3-0.8-1-1.1-2.2-1.1c-0.4,0-0.8,0.2-1.3,0.5s-1,0.7-1.5,1v6.4v21.9h-15.6V49.8h15.7L245.2,52.6L245.2,52.6
		z"/>
	<path class="st0" d="M12,106.5h7.3c3.4,0,5.3-0.8,5.9-2.5c0.1-0.2,0.2-0.3,0.3-0.3c0.1,0,0.2,0.1,0.2,0.4v5.6c0,0.2,0,0.3-0.2,0.3
		c-0.1,0-0.1-0.1-0.2-0.2l-0.2-0.4c-0.5-0.8-1.4-1.3-2.8-1.7c-1.2-0.3-2.6-0.5-4.1-0.5h-6.1v4.8c0,1.6,0.1,2.9,0.4,3.8
		c0.3,1,0.9,1.7,1.6,1.9l0.6,0.2c0.2,0,0.2,0.1,0.2,0.1c0,0.1-0.1,0.1-0.2,0.1l-1.1,0.1c-0.2,0-0.4,0-0.6,0c-1.2,0-2.3,0-3.3,0
		c-0.9,0-2,0-3.1,0c-0.2,0-0.4,0-0.6,0H5c-0.2,0-0.3,0-0.3-0.1c0,0,0.1-0.1,0.2-0.1c0,0,0.1,0,0.2-0.1c0.1,0,0.2-0.1,0.2-0.1
		c1.4-0.6,2.1-2,2.1-4.1v-13c0-1.9-0.4-3-1.3-3.3l-0.4-0.2c-0.2,0-0.2-0.1-0.2-0.2s0.2-0.1,0.7-0.1h22l1.4,3.8
		c0.1,0.3,0.2,0.5,0.2,0.5c0,0.2,0,0.2-0.1,0.2c0,0-0.1,0-0.2-0.1l-0.3-0.3c-2.4-2.2-5.6-3.3-9.7-3.3h-7.2v8.8L12,106.5L12,106.5z"
		/>
	<path class="st0" d="M49.7,99.9c0-1.5-0.6-2.4-1.6-2.6l-0.2-0.1c-0.1,0-0.2-0.1-0.2-0.1c0-0.2,0.2-0.3,0.5-0.3l1.5,0.1
		c1,0,1.8,0.1,2.3,0.1s1.2,0,2.1-0.1l1.3-0.1c0.1,0,0.3,0,0.3,0c0.1,0,0.2,0.1,0.2,0.2s-0.1,0.1-0.2,0.2l-0.4,0.2
		c-0.1,0.1-0.3,0.2-0.4,0.2c-0.1,0.1-0.2,0.2-0.3,0.4c-0.2,0.3-0.3,0.7-0.3,1.2v15.3c0,1.7,0.6,2.8,1.9,3.2c0.4,0.1,0.6,0.2,0.6,0.3
		c0,0-0.1,0.1-0.4,0.1h-8.9c-0.2,0-0.3,0-0.3-0.1c0,0,0.1-0.1,0.2-0.1l0.5-0.1c1.2-0.5,1.9-1.6,1.9-3.2L49.7,99.9L49.7,99.9z"/>
	<path class="st0" d="M78.4,112.2c0,1.4,0.2,2.4,0.5,3.3c0.5,1.1,1.3,1.9,2.5,2.3l0.3,0.1c0.1,0,0.2,0.1,0.2,0.1
		c0,0.1-0.3,0.1-0.9,0.1h-6.7c-0.2,0-0.3,0-0.3-0.1s0.1-0.1,0.3-0.1c1.2-0.5,2.1-1.3,2.6-2.4c0.4-0.9,0.6-2,0.6-3.3v-9.3
		c0-2-0.2-3.4-0.5-4.2c-0.3-0.6-0.7-1.1-1.4-1.3c-0.5-0.2-0.7-0.3-0.7-0.4s0.2-0.2,0.6-0.2h6.6l17.5,14.9v-7.9c0-0.8,0-1.6-0.1-2.2
		c-0.1-0.7-0.2-1.4-0.4-1.9c-0.5-1.3-1.3-2.1-2.6-2.5c-0.2-0.1-0.3-0.2-0.3-0.3s0.2-0.2,0.5-0.2h6.5c0.3,0,0.4,0,0.4,0.1
		s-0.2,0.2-0.7,0.4c-0.9,0.4-1.5,1.1-1.9,2.2c-0.3,0.9-0.4,1.9-0.4,3.3v15.5c0,0.1,0,0.2-0.1,0.3c0,0.1-0.1,0.2-0.1,0.2h-0.1
		c-0.1,0-0.2-0.1-0.4-0.2c-0.1,0-0.1-0.1-0.2-0.2L78.4,99.2V112.2z"/>
	<path class="st0" d="M128.6,108.5l-2.1,3.5c-0.4,0.7-0.8,1.3-1,1.8c-0.3,0.7-0.4,1.3-0.4,2c0,0.6,0.2,1.1,0.7,1.5
		c0.2,0.1,0.4,0.3,0.7,0.4l0.8,0.3c0.3,0.1,0.4,0.1,0.4,0.2s-0.2,0.2-0.5,0.2h-0.8c-0.2,0-0.3,0-0.4,0c-0.9,0-1.8,0-2.7,0h-1.1
		l-2,0.1c-0.3,0-0.5-0.1-0.5-0.2s0.1-0.2,0.3-0.3l0.5-0.2c0.7-0.5,1.6-1.3,2.6-2.5c0.8-1,1.5-1.9,2-2.7l9.7-15.7
		c0.1-0.2,0.2-0.3,0.3-0.3h0.1c0.1,0,0.2,0.1,0.3,0.3l11.7,18.2c0.8,1.2,1.7,2.1,2.7,2.7l0.6,0.3c0.2,0.1,0.3,0.2,0.3,0.2
		c0,0.1-0.2,0.2-0.5,0.2h-0.9c-0.2,0-0.4,0-0.5,0c-1,0-2,0-3,0h-2.1l-2.7,0.1c-0.3,0-0.4,0-0.4-0.1s0.2-0.2,0.5-0.3
		c0.7-0.2,1.1-0.8,1.1-1.7c0-0.3-0.2-0.8-0.5-1.5s-0.7-1.4-1.2-2.2l-2.3-3.9h-9.7L128.6,108.5L128.6,108.5z M133.3,100.8l-4.2,6.9
		h8.4L133.3,100.8z"/>
	<path class="st0" d="M171.1,112.2c0,1.4,0.2,2.4,0.5,3.3c0.5,1.1,1.3,1.9,2.5,2.3l0.3,0.1c0.1,0,0.2,0.1,0.2,0.1
		c0,0.1-0.3,0.1-0.9,0.1H167c-0.2,0-0.3,0-0.3-0.1s0.1-0.1,0.3-0.1c1.2-0.5,2.1-1.3,2.6-2.4c0.4-0.9,0.6-2,0.6-3.3v-9.3
		c0-2-0.2-3.4-0.5-4.2c-0.3-0.6-0.7-1.1-1.4-1.3c-0.5-0.2-0.7-0.3-0.7-0.4s0.2-0.2,0.6-0.2h6.6l17.5,14.9v-7.9c0-0.8,0-1.6-0.1-2.2
		c-0.1-0.7-0.2-1.4-0.4-1.9c-0.5-1.3-1.3-2.1-2.6-2.5c-0.2-0.1-0.3-0.2-0.3-0.3s0.2-0.2,0.5-0.2h6.5c0.3,0,0.4,0,0.4,0.1
		s-0.2,0.2-0.7,0.4c-0.9,0.4-1.5,1.1-1.9,2.2c-0.3,0.9-0.4,1.9-0.4,3.3v15.5c0,0.1,0,0.2-0.1,0.3c0,0.1-0.1,0.2-0.1,0.2H193
		c-0.1,0-0.2-0.1-0.4-0.2c-0.1,0-0.1-0.1-0.2-0.2l-21.3-19.1V112.2z"/>
	<path class="st0" d="M241.1,115.8c-1.6,1.1-3.5,1.8-5.7,2.3c-1.9,0.4-4,0.7-6.3,0.7c-4.2,0-7.7-0.9-10.4-2.8
		c-1.4-1-2.6-2.1-3.3-3.5c-0.8-1.5-1.3-3.1-1.3-5c0-3.3,1.5-6,4.6-8.2c2.9-2,6.4-3.1,10.4-3.1c1.9,0,3.9,0.2,5.8,0.6
		c2.1,0.5,4,1.1,5.5,1.9l-1.5,3.8c-0.1,0.3-0.2,0.4-0.2,0.4c-0.1,0-0.1-0.1-0.2-0.3c-0.1-0.2-0.1-0.4-0.2-0.6
		c-0.5-1.6-1.3-2.8-2.7-3.6c-1.5-0.9-3.7-1.4-6.5-1.5c-1.7,0-3.2,0.3-4.6,0.9c-1.2,0.6-2.2,1.4-3,2.4c-0.7,0.9-1.3,2.1-1.6,3.3
		c-0.3,1.2-0.5,2.4-0.5,3.7c0,1.3,0.2,2.5,0.6,3.7c0.4,1.3,1,2.4,1.9,3.4s2.1,1.9,3.5,2.4c1.5,0.6,3.3,0.9,5.3,0.9
		c3.9,0,6.8-1.7,8.6-5.1l0.1-0.3c0-0.1,0.1-0.2,0.1-0.2c0.1-0.1,0.1-0.2,0.2-0.2c0.1,0,0.1,0,0.2,0.1L241.1,115.8z"/>
	<path class="st0" d="M266.4,106.5h7.3c3.3,0,5.3-0.8,6-2.5c0.1-0.2,0.2-0.3,0.3-0.3c0.1,0,0.2,0.2,0.2,0.5v5.5c0,0.3,0,0.5,0,0.5
		c0,0.1-0.1,0.1-0.1,0.1c-0.1,0-0.1,0-0.2-0.1l-0.2-0.3c-0.5-1.1-1.5-1.8-3-2.2c-0.6-0.2-1.3-0.3-2.1-0.3c-0.6,0-1.3-0.1-2.1-0.1
		h-6.1v7c0,1.2,0.3,2,0.8,2.4s1.4,0.6,2.8,0.6h4.5c3.9,0,7.3-1.2,10.3-3.6l0.8-0.5c0.2-0.1,0.4-0.2,0.4-0.2c0.1,0,0.1,0,0.1,0.1
		l-1.8,5h-24.2c-0.5,0-0.8,0-0.9,0c-0.2,0-0.3-0.1-0.3-0.1s0.2-0.1,0.4-0.2c0.2-0.1,0.3-0.1,0.4-0.1c0.1-0.1,0.2-0.1,0.3-0.1
		c1.2-0.8,1.7-2.4,1.7-4.9v-11.4c0-1.2-0.1-2.1-0.3-2.6c-0.3-0.7-0.7-1.1-1.5-1.3l-0.4-0.1c-0.1-0.1-0.2-0.1-0.2-0.2
		s0.2-0.2,0.7-0.2h22.4l1.3,3.7c0.1,0.3,0.1,0.5,0.1,0.6c0,0.2-0.1,0.3-0.2,0.3c-0.2,0-0.3-0.1-0.5-0.3c-0.8-1.1-2.1-2-4-2.6
		c-1.8-0.6-3.6-0.9-5.6-0.9h-7.3v8.8C266.2,106.5,266.4,106.5,266.4,106.5z"/>
	<rect x="4.7" y="90.1" class="st0" width="281.2" height="2.4"/>
	<rect x="4.7" y="121.9" class="st0" width="281.2" height="2.4"/>
</g>
<g>
	<g>
		<path class="st1" d="M186.2,39.7c-1.4-0.9-3.2-0.5-4.1,0.9c-0.9,1.4-0.5,3.2,0.9,4.1c1.4,0.9,3.2,0.5,4.1-0.9
			C188,42.4,187.6,40.5,186.2,39.7z M183.3,44.2c-1.2-0.7-1.5-2.3-0.8-3.4c0.7-1.2,2.3-1.5,3.4-0.8c1.2,0.7,1.5,2.3,0.8,3.4
			C186,44.6,184.5,45,183.3,44.2z"/>
		<path class="st2" d="M186,40.1c-1.2-0.7-2.7-0.4-3.4,0.8s-0.4,2.7,0.8,3.4s2.7,0.4,3.4-0.8S187.1,40.8,186,40.1z M183.8,43.5
			C183.8,43.6,183.8,43.6,183.8,43.5L183.8,43.5C183.8,43.6,183.8,43.6,183.8,43.5c0.5-0.8,0.3-1.8-0.5-2.3c0,0,0,0-0.1,0l0,0
			c0,0,0,0,0.1,0c0.8,0.5,1.8,0.3,2.3-0.5c-0.5,0.8-0.3,1.8,0.5,2.3C185.3,42.5,184.3,42.8,183.8,43.5z"/>
		<path class="st2" d="M183.8,43.6L183.8,43.6L183.8,43.6L183.8,43.6z"/>
		<path class="st2" d="M183.2,41.2C183.3,41.2,183.3,41.2,183.2,41.2C183.3,41.2,183.3,41.2,183.2,41.2L183.2,41.2z"/>
	</g>
	<g>
		
			<rect x="173" y="46.1" transform="matrix(0.4478 -0.8941 0.8941 0.4478 54.9149 189.3045)" class="st3" width="15.4" height="8.1"/>
		<g>
			<path class="st2" d="M174.3,55.1l6.3,3.2l6.5-12.9l-6.3-3.2L174.3,55.1z"/>
		</g>
		<g>
			<g>
				<path class="st3" d="M175,54.9l5.5,2.7l6-12.1l-5.5-2.7L175,54.9z"/>
			</g>
		</g>
		<g>
			<g>
				<path class="st4" d="M180.3,48.1c-0.5-0.1-0.8-0.6-0.6-1.1c0.1-0.5,0.6-0.8,1.1-0.6c0.1,0,0.2,0.1,0.2,0.1
					c0-0.1-0.1-0.2-0.1-0.3c0-0.5,0.4-0.9,0.9-0.9s0.9,0.4,0.9,0.9v0.1c0.1,0,0.1-0.1,0.2-0.1c0.5-0.2,1,0,1.2,0.5s0,1-0.5,1.2
					c-0.1,0-0.2,0.1-0.2,0.1c0.1,0.1,0.2,0.1,0.3,0.2c0.3,0.4,0.3,0.9-0.1,1.3c-0.4,0.3-0.9,0.3-1.3-0.1c-0.1-0.1-0.1-0.1-0.1-0.2
					c0,0.1-0.1,0.2-0.1,0.3c-0.3,0.4-0.8,0.5-1.2,0.3c-0.4-0.3-0.5-0.8-0.3-1.2c0-0.1,0.1-0.1,0.2-0.2
					C180.5,48.2,180.4,48.2,180.3,48.1z"/>
				<g>
					<path class="st5" d="M182.4,47.2c0,0.1,0,0.1,0.1,0.1s0.1,0,0.1-0.1s0-0.1-0.1-0.1S182.4,47.1,182.4,47.2z"/>
					<path class="st5" d="M181.9,47c0.1,0,0.1,0,0.2,0c0-0.1,0-0.1,0-0.2c-0.1,0-0.1,0-0.2,0C181.9,46.9,181.9,47,181.9,47z"/>
					<path class="st5" d="M181.5,47.3c0.1,0,0.1-0.1,0.1-0.2s-0.1-0.1-0.2-0.1s-0.1,0.1-0.1,0.2C181.4,47.3,181.4,47.3,181.5,47.3z"
						/>
					<path class="st5" d="M181.5,47.8c0-0.1,0-0.1-0.1-0.1s-0.1,0-0.1,0.1s0,0.1,0.1,0.1C181.4,47.9,181.5,47.8,181.5,47.8z"/>
					<path class="st5" d="M182,48c-0.1,0-0.1,0-0.2,0c0,0.1,0,0.1,0,0.2c0.1,0,0.1,0,0.2,0C182,48.1,182,48,182,48z"/>
					<path class="st5" d="M182.4,47.8c-0.1,0-0.1,0.1-0.1,0.2c0,0.1,0.1,0.1,0.2,0.1c0.1,0,0.1-0.1,0.1-0.2
						C182.6,47.8,182.4,47.7,182.4,47.8z"/>
				</g>
			</g>
			<path class="st5" d="M182.3,47.6c0,0.2-0.2,0.3-0.4,0.3s-0.3-0.2-0.3-0.4s0.2-0.3,0.4-0.3S182.4,47.4,182.3,47.6z"/>
		</g>
		<g>
			<g>
				<path class="st4" d="M177.6,53.5c-0.5-0.1-0.8-0.6-0.6-1.1c0.1-0.5,0.6-0.8,1.1-0.6c0.1,0,0.2,0.1,0.2,0.1
					c0-0.1-0.1-0.2-0.1-0.3c0-0.5,0.4-0.9,0.9-0.9s0.9,0.4,0.9,0.9v0.1c0.1,0,0.1-0.1,0.2-0.1c0.5-0.2,1,0,1.2,0.5s0,1-0.5,1.2
					c-0.1,0-0.2,0.1-0.2,0.1c0.1,0.1,0.2,0.1,0.3,0.2c0.3,0.4,0.3,0.9-0.1,1.3c-0.4,0.3-0.9,0.3-1.3-0.1c-0.1-0.1-0.1-0.1-0.1-0.2
					c0,0.1-0.1,0.2-0.1,0.3c-0.3,0.4-0.8,0.5-1.2,0.3c-0.4-0.3-0.5-0.8-0.3-1.2c0-0.1,0.1-0.1,0.2-0.2
					C177.9,53.5,177.7,53.5,177.6,53.5z"/>
				<g>
					<path class="st5" d="M179.7,52.6c0,0.1,0,0.1,0.1,0.1s0.1,0,0.1-0.1s0-0.1-0.1-0.1C179.8,52.5,179.7,52.5,179.7,52.6z"/>
					<path class="st5" d="M179.3,52.4c0.1,0,0.1,0,0.2,0c0-0.1,0-0.1,0-0.2c-0.1,0-0.1,0-0.2,0C179.2,52.3,179.2,52.3,179.3,52.4z"
						/>
					<path class="st5" d="M178.8,52.6c0.1,0,0.1-0.1,0.1-0.2s-0.1-0.1-0.2-0.1c-0.1,0-0.1,0.1-0.1,0.2
						C178.7,52.6,178.8,52.7,178.8,52.6z"/>
					<path class="st5" d="M178.9,53.1c0-0.1,0-0.1-0.1-0.1s-0.1,0-0.1,0.1s0,0.1,0.1,0.1C178.8,53.3,178.8,53.2,178.9,53.1z"/>
					<path class="st5" d="M179.3,53.4c-0.1,0-0.1,0-0.2,0c0,0.1,0,0.1,0,0.2c0.1,0,0.1,0,0.2,0C179.3,53.5,179.3,53.4,179.3,53.4z"
						/>
					<path class="st5" d="M179.7,53.1c-0.1,0-0.1,0.1-0.1,0.2c0,0.1,0.1,0.1,0.2,0.1c0.1,0,0.1-0.1,0.1-0.2
						C179.9,53.2,179.8,53.1,179.7,53.1z"/>
				</g>
			</g>
			<path class="st5" d="M179.6,53c0,0.2-0.2,0.3-0.4,0.3s-0.3-0.2-0.3-0.4s0.2-0.3,0.4-0.3C179.6,52.6,179.7,52.8,179.6,53z"/>
		</g>
	</g>
</g>
<g>
	<g>
		<path class="st4" d="M153.5,125.6c-1.3,0-2.4-1.1-2.4-2.5c0-1.3,1.1-2.4,2.5-2.4c0.2,0,0.5,0,0.7,0.1c-0.2-0.2-0.3-0.5-0.4-0.8
			c-0.4-1.3,0.3-2.7,1.6-3c1.3-0.4,2.7,0.3,3,1.6c0,0.1,0.1,0.3,0.1,0.4c0.1-0.2,0.3-0.3,0.4-0.4c1.1-0.8,2.6-0.6,3.4,0.5
			c0.8,1.1,0.6,2.6-0.5,3.4c-0.2,0.1-0.4,0.3-0.6,0.3c0.3,0.1,0.6,0.2,0.8,0.4c1.1,0.8,1.4,2.3,0.6,3.4c-0.8,1.1-2.3,1.4-3.4,0.6
			c-0.2-0.1-0.4-0.3-0.5-0.5c0,0.3,0,0.6-0.1,0.9c-0.4,1.3-1.8,2-3.1,1.6c-1.3-0.4-2-1.8-1.6-3.1c0.1-0.2,0.2-0.4,0.3-0.6
			C154.1,125.6,153.8,125.6,153.5,125.6z"/>
		<g>
			<path class="st6" d="M158.3,121.8c0,0.2,0.2,0.3,0.4,0.3s0.3-0.2,0.3-0.4c0-0.2-0.2-0.3-0.4-0.3
				C158.4,121.4,158.3,121.6,158.3,121.8z"/>
			<path class="st6" d="M157,121.5c0.2,0.1,0.4,0,0.4-0.2c0.1-0.2,0-0.4-0.2-0.4c-0.2-0.1-0.4,0-0.4,0.2
				C156.7,121.2,156.8,121.4,157,121.5z"/>
			<path class="st6" d="M156.1,122.5c0.2-0.1,0.2-0.3,0.1-0.5c-0.1-0.2-0.3-0.2-0.5-0.1s-0.2,0.3-0.1,0.5S155.9,122.6,156.1,122.5z"
				/>
			<path class="st6" d="M156.5,123.8c0-0.2-0.2-0.3-0.4-0.3s-0.3,0.2-0.3,0.4c0,0.2,0.2,0.3,0.4,0.3
				C156.3,124.1,156.5,124,156.5,123.8z"/>
			<path class="st6" d="M157.8,124.1c-0.2-0.1-0.4,0-0.5,0.1c-0.1,0.2,0,0.4,0.1,0.5c0.2,0.1,0.4,0,0.5-0.1
				C158,124.4,157.9,124.2,157.8,124.1z"/>
			<path class="st6" d="M158.7,123.2c-0.2,0.1-0.2,0.3-0.1,0.5c0.1,0.2,0.3,0.2,0.5,0.1s0.2-0.3,0.1-0.5S158.9,123.1,158.7,123.2z"
				/>
		</g>
	</g>
	<path class="st6" d="M158.4,122.8c0,0.5-0.4,1-0.9,1s-1-0.4-1-0.9s0.4-1,0.9-1C158,121.9,158.4,122.3,158.4,122.8z"/>
</g>
<g>
	<g>
		<path class="st4" d="M137.7,75c-0.9,0-1.6-0.7-1.6-1.6s0.7-1.6,1.6-1.6c0.2,0,0.3,0,0.5,0.1c-0.1-0.2-0.2-0.3-0.3-0.5
			c-0.3-0.9,0.2-1.8,1.1-2c0.9-0.3,1.8,0.2,2,1.1c0,0.1,0,0.2,0.1,0.3c0.1-0.1,0.2-0.2,0.3-0.3c0.7-0.5,1.7-0.4,2.3,0.3
			c0.5,0.7,0.4,1.7-0.3,2.3c-0.1,0.1-0.3,0.2-0.4,0.2c0.2,0,0.4,0.1,0.5,0.2c0.7,0.5,0.9,1.5,0.4,2.3c-0.5,0.7-1.5,0.9-2.3,0.4
			c-0.1-0.1-0.2-0.2-0.3-0.3c0,0.2,0,0.4-0.1,0.6c-0.3,0.9-1.2,1.3-2,1.1c-0.9-0.3-1.3-1.2-1.1-2c0-0.2,0.1-0.3,0.2-0.4
			C138.1,75,137.9,75,137.7,75z"/>
		<g>
			<path class="st6" d="M140.9,72.5c0,0.1,0.1,0.2,0.3,0.2c0.1,0,0.2-0.1,0.2-0.3c0-0.1-0.1-0.2-0.3-0.2
				C141,72.2,140.9,72.3,140.9,72.5z"/>
			<path class="st6" d="M140,72.3c0.1,0,0.2,0,0.3-0.1c0-0.1,0-0.2-0.1-0.3c-0.1,0-0.2,0-0.3,0.1C139.8,72.1,139.9,72.2,140,72.3z"
				/>
			<path class="st6" d="M139.4,73c0.1-0.1,0.1-0.2,0.1-0.3c-0.1-0.1-0.2-0.1-0.3-0.1c-0.1,0.1-0.1,0.2-0.1,0.3
				C139.2,73,139.3,73,139.4,73z"/>
			<path class="st6" d="M139.7,73.8c0-0.1-0.1-0.2-0.2-0.2c-0.1,0-0.2,0.1-0.2,0.2s0.1,0.2,0.2,0.2C139.6,74,139.7,73.9,139.7,73.8z
				"/>
			<path class="st6" d="M140.5,74c-0.1-0.1-0.2,0-0.3,0.1s0,0.2,0.1,0.3s0.2,0,0.3-0.1C140.7,74.2,140.6,74.1,140.5,74z"/>
			<path class="st6" d="M141.2,73.4c-0.1,0.1-0.1,0.2-0.1,0.3c0.1,0.1,0.2,0.1,0.3,0.1c0.1-0.1,0.1-0.2,0.1-0.3
				C141.4,73.4,141.3,73.3,141.2,73.4z"/>
		</g>
	</g>
	<path class="st6" d="M141,73.2c0,0.4-0.3,0.6-0.6,0.6c-0.4,0-0.6-0.3-0.6-0.6c0-0.4,0.3-0.6,0.6-0.6C140.7,72.5,141,72.8,141,73.2z
		"/>
</g>
<g>
	<polygon class="st7" points="70.4,21.2 73.4,15.5 79.5,14.2 83.5,15 90,14.1 88.8,13.9 83.4,14.2 80.4,13.4 86.1,10.9 88.4,7.3 
		87.4,8 85.6,10.4 79.2,13 74.1,14.3 73.8,14.6 73.9,14.5 77.8,9.9 79.9,8.6 84.5,8.1 90.4,3.9 87.8,5.1 84,7.1 79.5,7.5 76.6,9.3 
		72.6,13.9 69.3,20.3 66.2,21.8 58.2,23.7 62.1,16 60.2,10.2 59.6,9.4 60.8,6.6 59,9.3 60.8,15.5 54.8,24.5 42.3,27.4 37.1,29.1 
		37,29.1 42.6,21 49.3,16.2 55.3,13.7 48.9,15.4 41.4,20.2 34,29.1 31.3,29.1 21.9,24.3 15.6,22.7 0,20.9 0,24.6 18.6,26.1 26,30.5 
		30.3,30.6 34.5,34 36.4,37.6 41.2,42.1 40.6,41 37,37 35.7,34.2 41.2,37.1 45.5,36.5 44.3,36.2 41.2,36.3 35.2,33 32.1,30.7 
		36.7,30.8 42.3,29 57.5,25.4 52.8,26.5 65.2,26 75,26.6 80.5,20.7 80.8,19.6 74.6,25.9 63.8,25.1 59.1,25 66.5,23.3 	"/>
	<g>
		<g>
			<path class="st4" d="M44.2,38.2c-0.8,0-1.4-0.6-1.4-1.4c0-0.8,0.6-1.4,1.4-1.4c0.1,0,0.3,0,0.4,0.1c-0.1-0.1-0.2-0.3-0.2-0.5
				c-0.2-0.7,0.2-1.5,0.9-1.8c0.7-0.2,1.5,0.2,1.8,0.9c0,0.1,0,0.2,0,0.2c0.1-0.1,0.2-0.2,0.2-0.2c0.6-0.5,1.5-0.4,2,0.3
				c0.5,0.6,0.4,1.5-0.3,2c-0.1,0.1-0.2,0.1-0.3,0.2c0.2,0,0.3,0.1,0.5,0.2c0.6,0.4,0.8,1.3,0.3,2c-0.4,0.6-1.3,0.8-2,0.3
				c-0.1-0.1-0.2-0.2-0.3-0.3c0,0.2,0,0.3-0.1,0.5c-0.2,0.7-1,1.2-1.8,0.9c-0.7-0.2-1.2-1-0.9-1.8c0-0.1,0.1-0.3,0.2-0.4
				C44.6,38.1,44.4,38.2,44.2,38.2z"/>
			<g>
				<path class="st6" d="M47,35.9c0,0.1,0.1,0.2,0.2,0.2s0.2-0.1,0.2-0.2c0-0.1-0.1-0.2-0.2-0.2S47,35.8,47,35.9z"/>
				<path class="st6" d="M46.2,35.8c0.1,0,0.2,0,0.3-0.1c0-0.1,0-0.2-0.1-0.3c-0.1,0-0.2,0-0.3,0.1C46.1,35.6,46.1,35.7,46.2,35.8z"
					/>
				<path class="st6" d="M45.7,36.3c0.1-0.1,0.1-0.2,0-0.3s-0.2-0.1-0.3,0s-0.1,0.2,0,0.3C45.5,36.4,45.6,36.4,45.7,36.3z"/>
				<path class="st6" d="M45.9,37.1c0-0.1-0.1-0.2-0.2-0.2c-0.1,0-0.2,0.1-0.2,0.2c0,0.1,0.1,0.2,0.2,0.2
					C45.9,37.3,46,37.2,45.9,37.1z"/>
				<path class="st6" d="M46.7,37.3c-0.1,0-0.2,0-0.3,0.1c0,0.1,0,0.2,0.1,0.3c0.1,0,0.2,0,0.3-0.1C46.8,37.4,46.8,37.3,46.7,37.3z"
					/>
				<path class="st6" d="M47.3,36.7c-0.1,0.1-0.1,0.2-0.1,0.3c0.1,0.1,0.2,0.1,0.3,0.1c0.1-0.1,0.1-0.2,0.1-0.3
					C47.5,36.7,47.3,36.7,47.3,36.7z"/>
			</g>
		</g>
		<path class="st6" d="M47.1,36.5c0,0.3-0.2,0.6-0.5,0.6S46,36.9,46,36.6s0.2-0.6,0.5-0.6S47.1,36.2,47.1,36.5z"/>
	</g>
	<g>
		<g>
			<path class="st4" d="M24.5,20.4c-0.6,0-1-0.5-1-1.1s0.5-1,1.1-1c0.1,0,0.2,0,0.3,0c-0.1-0.1-0.1-0.2-0.2-0.3
				c-0.2-0.6,0.1-1.1,0.7-1.3s1.1,0.1,1.3,0.7c0,0.1,0,0.1,0,0.2c0.1-0.1,0.1-0.1,0.2-0.2c0.5-0.4,1.1-0.3,1.5,0.2s0.3,1.1-0.2,1.5
				c-0.2,0-0.3,0-0.4,0.1c0.1,0,0.2,0.1,0.4,0.2c0.5,0.3,0.6,1,0.3,1.5s-1,0.6-1.5,0.3c-0.1-0.1-0.2-0.1-0.2-0.2c0,0.1,0,0.3,0,0.4
				c-0.2,0.6-0.8,0.9-1.3,0.7c-0.6-0.2-0.9-0.8-0.7-1.3c0-0.1,0.1-0.2,0.1-0.3C24.7,20.3,24.6,20.4,24.5,20.4z"/>
			<g>
				<path class="st6" d="M26.5,18.7c0,0.1,0.1,0.1,0.2,0.1s0.1-0.1,0.1-0.2s-0.1-0.1-0.2-0.1C26.6,18.6,26.5,18.6,26.5,18.7z"/>
				<path class="st6" d="M26,18.6c0.1,0,0.2,0,0.2-0.1s0-0.2-0.1-0.2s-0.2,0-0.2,0.1S25.9,18.6,26,18.6z"/>
				<path class="st6" d="M25.6,19c0.1,0,0.1-0.1,0-0.2s-0.1-0.1-0.2,0c-0.1,0-0.1,0.1,0,0.2C25.4,19.1,25.5,19.1,25.6,19z"/>
				<path class="st6" d="M25.7,19.6c0-0.1-0.1-0.1-0.2-0.1s-0.1,0.1-0.1,0.2s0.1,0.1,0.2,0.1C25.7,19.7,25.8,19.7,25.7,19.6z"/>
				<path class="st6" d="M26.3,19.7c-0.1,0-0.2,0-0.2,0.1s0,0.2,0.1,0.2s0.2,0,0.2-0.1C26.4,19.8,26.4,19.8,26.3,19.7z"/>
				<path class="st6" d="M26.7,19.3c-0.1,0-0.1,0.1,0,0.2c0,0.1,0.1,0.1,0.2,0c0.1,0,0.1-0.1,0-0.2C26.9,19.3,26.8,19.3,26.7,19.3z"
					/>
			</g>
		</g>
		<path class="st6" d="M26.6,19.2c0,0.2-0.2,0.4-0.4,0.4c-0.2,0-0.4-0.2-0.4-0.4s0.2-0.4,0.4-0.4C26.4,18.8,26.6,18.9,26.6,19.2z"/>
	</g>
	<g>
		<g>
			<path class="st4" d="M88.5,5.8c-0.6,0-1-0.5-1-1.1s0.5-1,1.1-1c0.1,0,0.2,0,0.3,0c-0.1-0.1-0.1-0.2-0.2-0.3
				c-0.2-0.6,0.1-1.1,0.7-1.3c0.6-0.2,1.1,0.1,1.3,0.7c0,0.1,0,0.1,0,0.2c0.1-0.1,0.1-0.1,0.2-0.2C91.4,2.4,92,2.5,92.4,3
				s0.3,1.1-0.2,1.5c-0.1,0.1-0.2,0.1-0.3,0.1c0.1,0,0.2,0.1,0.4,0.2c0.5,0.3,0.6,1,0.3,1.5c-0.3,0.5-1,0.6-1.5,0.3
				c-0.1-0.1-0.2-0.1-0.2-0.2c0,0.1,0,0.3,0,0.4c-0.2,0.6-0.8,0.9-1.3,0.7c-0.6-0.2-0.9-0.8-0.7-1.3C88.9,6.1,89,6,89,5.9
				C88.8,5.8,88.7,5.8,88.5,5.8z"/>
			<g>
				<path class="st6" d="M90.6,4.2c0,0.1,0.1,0.1,0.2,0.1s0.1-0.1,0.1-0.2S90.8,4,90.7,4S90.6,4.1,90.6,4.2z"/>
				<path class="st6" d="M90,4.1c0.1,0,0.2,0,0.2-0.1c0-0.1,0-0.2-0.1-0.2s-0.2,0-0.2,0.1S89.9,4,90,4.1z"/>
				<path class="st6" d="M89.6,4.5c0.1,0,0.1-0.1,0-0.2c0-0.1-0.1-0.1-0.2,0c-0.1,0-0.1,0.1,0,0.2C89.5,4.5,89.6,4.5,89.6,4.5z"/>
				<path class="st6" d="M89.8,5.1C89.8,5,89.7,5,89.6,5s-0.1,0.1-0.1,0.2s0.1,0.1,0.2,0.1C89.7,5.2,89.8,5.1,89.8,5.1z"/>
				<path class="st6" d="M90.4,5.2c-0.1,0-0.2,0-0.2,0.1s0,0.2,0.1,0.2s0.2,0,0.2-0.1S90.4,5.2,90.4,5.2z"/>
				<path class="st6" d="M90.8,4.8c-0.1,0-0.1,0.1,0,0.2c0,0.1,0.1,0.1,0.2,0c0.1,0,0.1-0.1,0-0.2C90.9,4.8,90.8,4.8,90.8,4.8z"/>
			</g>
		</g>
		<path class="st6" d="M90.6,4.6c0,0.2-0.2,0.4-0.4,0.4c-0.2,0-0.4-0.2-0.4-0.4c0-0.2,0.2-0.4,0.4-0.4S90.6,4.4,90.6,4.6z"/>
	</g>
	<g>
		<g>
			<path class="st4" d="M87.7,15.7c-0.6,0-1-0.5-1-1.1s0.5-1,1.1-1c0.1,0,0.2,0,0.3,0c-0.1-0.1-0.1-0.2-0.2-0.3
				c-0.2-0.6,0.1-1.1,0.7-1.3s1.1,0.1,1.3,0.7c0,0.1,0,0.1,0,0.2c0.1-0.1,0.1-0.1,0.2-0.2c0.5-0.4,1.1-0.3,1.5,0.2s0.3,1.1-0.2,1.5
				c-0.1,0.1-0.2,0.1-0.3,0.1c0.1,0,0.2,0.1,0.4,0.2c0.5,0.3,0.6,1,0.3,1.5c-0.3,0.5-1,0.6-1.5,0.3c-0.1-0.1-0.2-0.1-0.2-0.2
				c0,0.1,0,0.3,0,0.4c-0.2,0.6-0.8,0.9-1.3,0.7c-0.6-0.2-0.9-0.8-0.7-1.3c0-0.1,0.1-0.2,0.1-0.3C87.9,15.7,87.8,15.7,87.7,15.7z"/>
			<g>
				<path class="st6" d="M89.7,14.1c0,0.1,0.1,0.1,0.2,0.1S90,14.1,90,14s-0.1-0.1-0.2-0.1C89.8,13.9,89.7,14,89.7,14.1z"/>
				<path class="st6" d="M89.2,14c0.1,0,0.2,0,0.2-0.1s0-0.2-0.1-0.2s-0.2,0-0.2,0.1C89.1,13.9,89.1,13.9,89.2,14z"/>
				<path class="st6" d="M88.8,14.4c0.1,0,0.1-0.1,0-0.2c0-0.1-0.1-0.1-0.2,0c-0.1,0-0.1,0.1,0,0.2C88.6,14.4,88.7,14.4,88.8,14.4z"
					/>
				<path class="st6" d="M88.9,15c0-0.1-0.1-0.1-0.2-0.1s-0.1,0.1-0.1,0.2c0,0.1,0.1,0.1,0.2,0.1C88.9,15.1,88.9,15,88.9,15z"/>
				<path class="st6" d="M89.5,15.1c-0.1,0-0.2,0-0.2,0.1s0,0.2,0.1,0.2s0.2,0,0.2-0.1S89.6,15.1,89.5,15.1z"/>
				<path class="st6" d="M89.9,14.7c-0.1,0-0.1,0.1,0,0.2c0,0.1,0.1,0.1,0.2,0c0.1,0,0.1-0.1,0-0.2C90.1,14.7,90,14.7,89.9,14.7z"/>
			</g>
		</g>
		<path class="st6" d="M89.8,14.5c0,0.2-0.2,0.4-0.4,0.4c-0.2,0-0.4-0.2-0.4-0.4s0.2-0.4,0.4-0.4C89.6,14.1,89.8,14.3,89.8,14.5z"/>
	</g>
	<g>
		<g>
			<path class="st4" d="M79.7,22.4c-0.7,0-1.2-0.6-1.2-1.3s0.6-1.2,1.3-1.2c0.1,0,0.2,0,0.4,0.1c-0.1-0.1-0.2-0.3-0.2-0.4
				c-0.2-0.7,0.2-1.4,0.8-1.6c0.7-0.2,1.4,0.2,1.6,0.8c0,0.1,0,0.1,0,0.2c0.1-0.1,0.1-0.2,0.2-0.2c0.5-0.4,1.3-0.3,1.8,0.2
				c0.4,0.5,0.3,1.3-0.2,1.8c-0.1,0.1-0.2,0.1-0.3,0.2c0.1,0,0.3,0.1,0.4,0.2c0.6,0.4,0.7,1.2,0.3,1.7c-0.4,0.6-1.2,0.7-1.7,0.3
				c-0.1-0.1-0.2-0.2-0.3-0.2c0,0.2,0,0.3-0.1,0.5c-0.2,0.7-0.9,1-1.6,0.8s-1-0.9-0.8-1.6c0-0.1,0.1-0.2,0.2-0.3
				C80,22.4,79.9,22.4,79.7,22.4z"/>
			<g>
				<path class="st6" d="M82.1,20.4c0,0.1,0.1,0.2,0.2,0.1c0.1,0,0.2-0.1,0.1-0.2c0-0.1-0.1-0.2-0.2-0.1
					C82.2,20.3,82.1,20.4,82.1,20.4z"/>
				<path class="st6" d="M81.5,20.3c0.1,0,0.2,0,0.2-0.1s0-0.2-0.1-0.2s-0.2,0-0.2,0.1C81.3,20.2,81.4,20.3,81.5,20.3z"/>
				<path class="st6" d="M81,20.8c0.1-0.1,0.1-0.2,0-0.2c-0.1-0.1-0.2-0.1-0.2,0c-0.1,0.1-0.1,0.2,0,0.2
					C80.8,20.9,80.9,20.9,81,20.8z"/>
				<path class="st6" d="M81.2,21.5c0-0.1-0.1-0.2-0.2-0.2s-0.2,0.1-0.2,0.2s0.1,0.2,0.2,0.2S81.2,21.6,81.2,21.5z"/>
				<path class="st6" d="M81.9,21.7c-0.1,0-0.2,0-0.2,0.1s0,0.2,0.1,0.2s0.2,0,0.2-0.1C82,21.8,82,21.7,81.9,21.7z"/>
				<path class="st6" d="M82.4,21.2c-0.1,0.1-0.1,0.2-0.1,0.2c0.1,0.1,0.2,0.1,0.2,0.1c0.1-0.1,0.1-0.2,0.1-0.2
					C82.6,21.2,82.4,21.1,82.4,21.2z"/>
			</g>
		</g>
		<path class="st6" d="M82.2,21c0,0.3-0.2,0.5-0.5,0.5s-0.5-0.2-0.5-0.5s0.2-0.5,0.5-0.5S82.2,20.7,82.2,21z"/>
	</g>
	<g>
		<g>
			<path class="st4" d="M61,28.4c-1.2,0-2.1-1-2.1-2.1c0-1.2,1-2.1,2.1-2.1c0.2,0,0.4,0,0.6,0.1c-0.2-0.2-0.3-0.4-0.4-0.7
				c-0.3-1.1,0.3-2.3,1.4-2.6c1.1-0.3,2.3,0.3,2.6,1.4c0,0.1,0.1,0.2,0.1,0.3c0.1-0.1,0.2-0.3,0.4-0.4c0.9-0.7,2.2-0.5,3,0.4
				c0.7,0.9,0.5,2.2-0.4,3c-0.2,0.1-0.3,0.2-0.5,0.3c0.2,0.1,0.5,0.2,0.7,0.3c1,0.7,1.2,2,0.5,2.9c-0.7,1-2,1.2-2.9,0.5
				c-0.2-0.1-0.3-0.3-0.4-0.4c0,0.3,0,0.5-0.1,0.8c-0.4,1.1-1.5,1.7-2.7,1.4c-1.1-0.4-1.7-1.5-1.4-2.7c0.1-0.2,0.2-0.4,0.3-0.5
				C61.6,28.3,61.3,28.4,61,28.4z"/>
			<g>
				<path class="st6" d="M65.2,25c0,0.2,0.2,0.3,0.3,0.2c0.2,0,0.3-0.2,0.2-0.3c0-0.2-0.2-0.3-0.3-0.2C65.3,24.7,65.2,24.9,65.2,25z
					"/>
				<path class="st6" d="M64,24.8c0.1,0.1,0.3,0,0.4-0.2c0.1-0.1,0-0.3-0.2-0.4c-0.1-0.1-0.3,0-0.4,0.2C63.8,24.6,63.9,24.7,64,24.8
					z"/>
				<path class="st6" d="M63.3,25.7c0.1-0.1,0.2-0.3,0.1-0.4c-0.1-0.1-0.3-0.2-0.4-0.1c-0.1,0.1-0.2,0.3-0.1,0.4
					C62.9,25.7,63.1,25.8,63.3,25.7z"/>
				<path class="st6" d="M63.6,26.8c0-0.2-0.2-0.3-0.3-0.3c-0.2,0-0.3,0.2-0.3,0.3c0,0.2,0.2,0.3,0.3,0.3
					C63.5,27.1,63.6,26.9,63.6,26.8z"/>
				<path class="st6" d="M64.7,27.1c-0.1-0.1-0.3,0-0.4,0.1s0,0.3,0.1,0.4s0.3,0,0.4-0.1C64.9,27.3,64.9,27.1,64.7,27.1z"/>
				<path class="st6" d="M65.6,26.3c-0.1,0.1-0.2,0.3-0.1,0.4s0.3,0.2,0.4,0.1s0.2-0.3,0.1-0.4C65.9,26.2,65.7,26.2,65.6,26.3z"/>
			</g>
		</g>
		<path class="st6" d="M65.3,25.9c0,0.5-0.4,0.8-0.8,0.8c-0.5,0-0.8-0.4-0.8-0.8c0-0.5,0.4-0.8,0.8-0.8S65.3,25.5,65.3,25.9z"/>
	</g>
	<g>
		<g>
			<path class="st4" d="M101.4,30.6c-0.9,0-1.7-0.8-1.7-1.7s0.8-1.7,1.7-1.7c0.2,0,0.3,0,0.5,0.1c-0.1-0.2-0.2-0.3-0.3-0.6
				c-0.3-0.9,0.2-1.8,1.1-2.1s1.8,0.2,2.1,1.1c0,0.1,0,0.2,0.1,0.3c0.1-0.1,0.2-0.2,0.3-0.3c0.7-0.6,1.8-0.4,2.4,0.3
				s0.4,1.8-0.3,2.4c-0.1,0.1-0.3,0.2-0.4,0.2c0.2,0,0.4,0.1,0.6,0.3c0.8,0.5,0.9,1.6,0.4,2.4s-1.6,0.9-2.4,0.4
				c-0.1-0.1-0.3-0.2-0.3-0.3c0,0.2,0,0.4-0.1,0.6c-0.3,0.9-1.2,1.4-2.1,1.1s-1.4-1.2-1.1-2.1c0.1-0.2,0.1-0.3,0.2-0.4
				C101.8,30.6,101.6,30.6,101.4,30.6z"/>
			<g>
				<path class="st6" d="M104.7,27.9c0,0.1,0.1,0.2,0.3,0.2c0.1,0,0.2-0.1,0.2-0.3c0-0.1-0.1-0.2-0.3-0.2
					C104.8,27.7,104.7,27.8,104.7,27.9z"/>
				<path class="st6" d="M103.8,27.7c0.1,0.1,0.3,0,0.3-0.1c0.1-0.1,0-0.3-0.1-0.3c-0.1-0.1-0.3,0-0.3,0.1
					C103.6,27.6,103.7,27.7,103.8,27.7z"/>
				<path class="st6" d="M103.2,28.4c0.1-0.1,0.1-0.2,0.1-0.3c-0.1-0.1-0.2-0.1-0.3-0.1c-0.1,0.1-0.1,0.2-0.1,0.3
					C102.9,28.5,103.1,28.5,103.2,28.4z"/>
				<path class="st6" d="M103.4,29.3c0-0.1-0.1-0.2-0.3-0.2c-0.1,0-0.2,0.1-0.2,0.3s0.1,0.2,0.3,0.2
					C103.3,29.6,103.4,29.5,103.4,29.3z"/>
				<path class="st6" d="M104.3,29.6c-0.1-0.1-0.3,0-0.3,0.1c-0.1,0.1,0,0.3,0.1,0.3c0.1,0.1,0.3,0,0.3-0.1
					C104.5,29.8,104.4,29.6,104.3,29.6z"/>
				<path class="st6" d="M105,28.9c-0.1,0.1-0.1,0.2-0.1,0.3c0.1,0.1,0.2,0.1,0.3,0.1c0.1-0.1,0.1-0.2,0.1-0.3S105.1,28.8,105,28.9z
					"/>
			</g>
		</g>
		<path class="st6" d="M104.8,28.7c0,0.4-0.3,0.7-0.7,0.7c-0.4,0-0.7-0.3-0.7-0.7s0.3-0.7,0.7-0.7S104.8,28.3,104.8,28.7z"/>
	</g>
	<g>
		<g>
			<path class="st4" d="M56.2,8.9c-0.9-0.3-1.4-1.2-1.1-2.1s1.2-1.4,2.1-1.1c0.2,0,0.3,0.1,0.4,0.2c-0.1-0.2-0.1-0.4-0.1-0.6
				c0-0.9,0.7-1.7,1.7-1.7c0.9,0,1.7,0.7,1.7,1.7c0,0.1,0,0.2,0,0.3c0.1-0.1,0.2-0.1,0.4-0.2c0.9-0.3,1.8,0.1,2.2,1
				c0.3,0.9-0.1,1.9-1,2.2c-0.2,0.1-0.3,0.1-0.5,0.1c0.2,0.1,0.3,0.2,0.5,0.4c0.6,0.7,0.5,1.8-0.3,2.4c-0.7,0.6-1.8,0.5-2.4-0.3
				c-0.1-0.1-0.2-0.3-0.2-0.4c0,0.2-0.1,0.4-0.2,0.6c-0.5,0.8-1.6,1-2.3,0.5c-0.8-0.5-1-1.6-0.5-2.3c0.1-0.1,0.2-0.3,0.3-0.4
				C56.6,9,56.4,8.9,56.2,8.9z"/>
			<g>
				<path class="st6" d="M60.1,7.2c0,0.1,0.1,0.2,0.2,0.3c0.1,0,0.2-0.1,0.3-0.2c0-0.1-0.1-0.2-0.2-0.3C60.3,7,60.2,7.1,60.1,7.2z"
					/>
				<path class="st6" d="M59.3,6.8c0.1,0.1,0.2,0.1,0.3,0s0.1-0.2,0-0.3c-0.1-0.1-0.2-0.1-0.3,0S59.2,6.7,59.3,6.8z"/>
				<path class="st6" d="M58.5,7.3c0.1,0,0.2-0.2,0.1-0.3c-0.1-0.1-0.2-0.2-0.3-0.1c-0.1,0-0.2,0.2-0.1,0.3
					C58.3,7.3,58.4,7.3,58.5,7.3z"/>
				<path class="st6" d="M58.5,8.2c0-0.1-0.1-0.3-0.2-0.3C58.2,7.9,58,8,58,8.1s0.1,0.3,0.2,0.3C58.4,8.4,58.5,8.3,58.5,8.2z"/>
				<path class="st6" d="M59.3,8.7c-0.1-0.1-0.2-0.1-0.3,0S58.9,8.9,59,9s0.2,0.1,0.3,0S59.4,8.8,59.3,8.7z"/>
				<path class="st6" d="M60.2,8.3c-0.1,0-0.2,0.2-0.2,0.3s0.2,0.2,0.3,0.2s0.2-0.2,0.2-0.3C60.4,8.3,60.3,8.2,60.2,8.3z"/>
			</g>
		</g>
		<path class="st6" d="M60,7.9c-0.1,0.4-0.5,0.6-0.8,0.5c-0.4-0.1-0.6-0.5-0.5-0.8c0.1-0.4,0.5-0.6,0.8-0.5
			C59.9,7.2,60.1,7.6,60,7.9z"/>
	</g>
	<g>
		<g>
			<path class="st4" d="M50.3,15.3c-0.7-0.1-1.2-0.8-1.1-1.5c0.1-0.7,0.8-1.2,1.5-1.1c0.1,0,0.2,0.1,0.4,0.1
				c-0.2-0.2-0.2-0.3-0.2-0.5c-0.1-0.7,0.4-1.4,1.1-1.5s1.4,0.4,1.5,1.1c0,0.1,0,0.1,0,0.2c0.1-0.1,0.2-0.1,0.3-0.2
				c0.6-0.4,1.4-0.1,1.8,0.5s0.1,1.4-0.5,1.8c-0.1,0.1-0.2,0.1-0.4,0.1c0.1,0.1,0.3,0.1,0.4,0.3c0.5,0.5,0.6,1.3,0.1,1.9
				c-0.5,0.5-1.3,0.6-1.9,0.1c-0.1-0.1-0.2-0.2-0.2-0.3c0,0.2-0.1,0.3-0.1,0.5c-0.3,0.7-1.1,0.9-1.8,0.6s-0.9-1.1-0.6-1.8
				c0.1-0.1,0.1-0.2,0.2-0.3C50.6,15.3,50.4,15.3,50.3,15.3z"/>
			<g>
				<path class="st6" d="M53.1,13.6c0,0.1,0.1,0.2,0.2,0.2c0.1,0,0.2-0.1,0.2-0.2s-0.1-0.2-0.2-0.2C53.2,13.4,53.1,13.5,53.1,13.6z"
					/>
				<path class="st6" d="M52.5,13.3c0.1,0.1,0.2,0,0.3-0.1s0-0.2-0.1-0.3s-0.2,0-0.3,0.1C52.3,13.2,52.4,13.3,52.5,13.3z"/>
				<path class="st6" d="M51.9,13.8c0.1,0,0.1-0.2,0.1-0.2c0-0.1-0.2-0.1-0.2-0.1c-0.1,0-0.1,0.2-0.1,0.2
					C51.7,13.8,51.8,13.9,51.9,13.8z"/>
				<path class="st6" d="M52,14.5c0-0.1-0.1-0.2-0.2-0.2s-0.2,0.1-0.2,0.2c0,0.1,0.1,0.2,0.2,0.2S52,14.6,52,14.5z"/>
				<path class="st6" d="M52.7,14.8c-0.1-0.1-0.2,0-0.3,0c-0.1,0.1,0,0.2,0,0.3c0.1,0.1,0.2,0,0.3,0C52.8,15,52.8,14.9,52.7,14.8z"
					/>
				<path class="st6" d="M53.3,14.4c-0.1,0-0.1,0.1-0.1,0.2c0,0.1,0.1,0.1,0.2,0.1s0.1-0.1,0.1-0.2C53.5,14.4,53.4,14.3,53.3,14.4z"
					/>
			</g>
		</g>
		<path class="st6" d="M53.1,14.2c0,0.3-0.3,0.5-0.6,0.4c-0.3,0-0.5-0.3-0.4-0.6c0-0.3,0.3-0.5,0.6-0.4C53,13.6,53.2,13.9,53.1,14.2
			z"/>
	</g>
	<g>
		<g>
			<path class="st4" d="M32.8,23c-0.4,0-0.6-0.3-0.6-0.7s0.3-0.6,0.7-0.6c0.1,0,0.1,0,0.2,0c0-0.1-0.1-0.1-0.1-0.2
				c-0.1-0.3,0.1-0.7,0.4-0.8s0.7,0.1,0.8,0.4v0.1l0.1-0.1c0.3-0.2,0.7-0.2,0.9,0.1c0.2,0.3,0.2,0.7-0.1,0.9
				c-0.1,0.1-0.1,0.1-0.2,0.1c0.1,0,0.1,0.1,0.2,0.1c0.3,0.2,0.4,0.6,0.2,0.9s-0.6,0.4-0.9,0.2c-0.1,0-0.1-0.1-0.1-0.1
				c0,0.1,0,0.2,0,0.2c-0.1,0.3-0.5,0.5-0.8,0.4s-0.5-0.5-0.4-0.8c0-0.1,0-0.1,0.1-0.2C33,23,32.9,23,32.8,23z"/>
			<g>
				<path class="st6" d="M34.1,21.9l0.1,0.1l0.1-0.1l-0.1-0.1C34.1,21.8,34.1,21.9,34.1,21.9z"/>
				<path class="st6" d="M33.8,21.9L33.8,21.9l0.1-0.1L33.8,21.9C33.7,21.8,33.7,21.9,33.8,21.9z"/>
				<path class="st6" d="M33.5,22.1L33.5,22.1L33.5,22.1L33.5,22.1C33.4,22.2,33.5,22.2,33.5,22.1z"/>
				<path class="st6" d="M33.6,22.5C33.6,22.4,33.6,22.4,33.6,22.5c-0.1-0.1-0.2,0-0.2,0S33.5,22.6,33.6,22.5
					C33.6,22.6,33.6,22.5,33.6,22.5z"/>
				<path class="st6" d="M34,22.6L34,22.6L34,22.6L34,22.6L34,22.6z"/>
				<path class="st6" d="M34.2,22.3C34.2,22.3,34.1,22.4,34.2,22.3C34.2,22.4,34.3,22.5,34.2,22.3C34.3,22.4,34.4,22.3,34.2,22.3
					C34.3,22.3,34.3,22.3,34.2,22.3z"/>
			</g>
		</g>
		<path class="st6" d="M34.1,22.2c0,0.1-0.1,0.3-0.3,0.3c-0.1,0-0.3-0.1-0.3-0.3s0.1-0.3,0.3-0.3C34,22,34.1,22.1,34.1,22.2z"/>
	</g>
	<g>
		<g>
			<path class="st4" d="M12.2,19.4c-0.4,0-0.6-0.3-0.6-0.7s0.3-0.6,0.7-0.6c0.1,0,0.1,0,0.2,0c0-0.1-0.1-0.1-0.1-0.2
				c-0.1-0.3,0.1-0.7,0.4-0.8c0.3-0.1,0.7,0.1,0.8,0.4v0.1l0.1-0.1c0.3-0.2,0.7-0.2,0.9,0.1c0.2,0.3,0.2,0.7-0.1,0.9
				c-0.1,0-0.1,0.1-0.2,0.1c0.1,0,0.1,0.1,0.2,0.1c0.3,0.2,0.4,0.6,0.2,0.9s-0.6,0.4-0.9,0.2c-0.1,0-0.1-0.1-0.1-0.1
				c0,0.1,0,0.2,0,0.2c-0.1,0.3-0.5,0.5-0.8,0.4s-0.5-0.5-0.4-0.8c0-0.1,0-0.1,0.1-0.2C12.3,19.4,12.3,19.4,12.2,19.4z"/>
			<g>
				<path class="st6" d="M13.5,18.4L13.5,18.4h0.2H13.5C13.5,18.3,13.4,18.3,13.5,18.4z"/>
				<path class="st6" d="M13.1,18.3L13.1,18.3L13.1,18.3L13.1,18.3C13,18.2,13.1,18.3,13.1,18.3z"/>
				<path class="st6" d="M12.9,18.6L12.9,18.6l-0.1-0.1v0.1C12.8,18.6,12.8,18.6,12.9,18.6z"/>
				<path class="st6" d="M13,18.9C13,18.9,12.9,18.8,13,18.9c-0.1-0.1-0.2,0-0.2,0C12.8,19,12.8,19,13,18.9C12.9,19,13,19,13,18.9z"
					/>
				<path class="st6" d="M13.3,19L13.3,19L13.3,19L13.3,19C13.4,19.1,13.4,19,13.3,19z"/>
				<path class="st6" d="M13.6,18.8C13.6,18.8,13.5,18.9,13.6,18.8C13.6,18.9,13.7,19,13.6,18.8C13.7,18.9,13.8,18.8,13.6,18.8
					C13.6,18.8,13.6,18.7,13.6,18.8z"/>
			</g>
		</g>
		<path class="st6" d="M13.5,18.7c0,0.1-0.1,0.3-0.3,0.3c-0.1,0-0.3-0.1-0.3-0.3c0-0.1,0.1-0.3,0.3-0.3S13.5,18.5,13.5,18.7z"/>
	</g>
	<g>
		<g>
			<path class="st4" d="M4.7,33.2c-0.6,0-1.1-0.5-1.1-1.1S4.1,31,4.7,31c0.1,0,0.2,0,0.3,0c-0.1-0.1-0.1-0.2-0.2-0.4
				c-0.2-0.6,0.1-1.2,0.7-1.4c0.6-0.2,1.2,0.1,1.4,0.7c0,0.1,0,0.1,0,0.2C7,30,7,30,7.1,29.9c0.5-0.4,1.2-0.3,1.5,0.2
				c0.4,0.5,0.3,1.2-0.2,1.5c-0.1,0.1-0.2,0.1-0.3,0.1c0.1,0,0.2,0.1,0.4,0.2c0.5,0.3,0.6,1,0.3,1.5s-1,0.6-1.5,0.3
				c-0.1-0.1-0.2-0.1-0.2-0.2c0,0.1,0,0.3,0,0.4c-0.2,0.6-0.8,0.9-1.4,0.7S4.8,33.8,5,33.2c0-0.1,0.1-0.2,0.1-0.3
				C5,33.2,4.9,33.2,4.7,33.2z"/>
			<g>
				<path class="st6" d="M6.8,31.5c0,0.1,0.1,0.1,0.2,0.1s0.1-0.1,0.1-0.2S7,31.3,6.9,31.3C6.9,31.4,6.8,31.4,6.8,31.5z"/>
				<path class="st6" d="M6.3,31.4c0.1,0,0.2,0,0.2-0.1s0-0.2-0.1-0.2s-0.2,0-0.2,0.1C6.1,31.3,6.2,31.4,6.3,31.4z"/>
				<path class="st6" d="M5.9,31.9c0.1,0,0.1-0.1,0-0.2c0-0.1-0.1-0.1-0.2,0c-0.1,0-0.1,0.1,0,0.2C5.7,31.9,5.8,31.9,5.9,31.9z"/>
				<path class="st6" d="M6,32.4c0-0.1-0.1-0.1-0.2-0.1s-0.1,0.1-0.1,0.2c0,0.1,0.1,0.1,0.2,0.1C6,32.6,6,32.5,6,32.4z"/>
				<path class="st6" d="M6.6,32.6c-0.1,0-0.2,0-0.2,0.1s0,0.2,0.1,0.2s0.2,0,0.2-0.1S6.7,32.6,6.6,32.6z"/>
				<path class="st6" d="M7,32.2c-0.1,0-0.1,0.1,0,0.2c0,0.1,0.1,0.1,0.2,0c0.1,0,0.1-0.1,0-0.2C7.2,32.1,7.1,32.1,7,32.2z"/>
			</g>
		</g>
		<path class="st6" d="M6.9,32c0,0.2-0.2,0.4-0.4,0.4S6.1,32.2,6.1,32c0-0.2,0.2-0.4,0.4-0.4C6.7,31.6,6.9,31.8,6.9,32z"/>
	</g>
	<g>
		<g>
			<path class="st4" d="M69.3,8.8c-0.4,0-0.6-0.3-0.6-0.7c0-0.4,0.3-0.6,0.7-0.6c0.1,0,0.1,0,0.2,0c0-0.1-0.1-0.1-0.1-0.2
				c-0.1-0.3,0.1-0.7,0.4-0.8c0.3-0.1,0.7,0.1,0.8,0.4V7l0.1-0.1c0.3-0.2,0.7-0.2,0.9,0.1c0.2,0.3,0.2,0.7-0.1,0.9
				c-0.1,0-0.1,0.1-0.2,0.1c0.1,0,0.1,0.1,0.2,0.1C71.9,8.3,72,8.7,71.8,9s-0.6,0.4-0.9,0.2c-0.1,0-0.1-0.1-0.1-0.1
				c0,0.1,0,0.2,0,0.2c-0.1,0.3-0.5,0.5-0.8,0.4s-0.5-0.5-0.4-0.8c0-0.1,0-0.1,0.1-0.2C69.4,8.8,69.4,8.8,69.3,8.8z"/>
			<g>
				<path class="st6" d="M70.6,7.8L70.6,7.8h0.2H70.6C70.6,7.7,70.6,7.7,70.6,7.8z"/>
				<path class="st6" d="M70.2,7.7L70.2,7.7L70.2,7.7L70.2,7.7C70.1,7.6,70.2,7.7,70.2,7.7z"/>
				<path class="st6" d="M70,8L70,8L70,8L70,8C69.9,8,69.9,8,70,8z"/>
				<path class="st6" d="M70.1,8.3C70.1,8.2,70,8.2,70.1,8.3c-0.1-0.1-0.2,0-0.2,0C69.9,8.4,69.9,8.4,70.1,8.3
					C70,8.4,70.1,8.3,70.1,8.3z"/>
				<path class="st6" d="M70.4,8.4L70.4,8.4L70.4,8.4L70.4,8.4C70.5,8.5,70.5,8.4,70.4,8.4z"/>
				<path class="st6" d="M70.7,8.1C70.7,8.1,70.6,8.2,70.7,8.1C70.7,8.2,70.8,8.3,70.7,8.1C70.8,8.2,70.9,8.1,70.7,8.1
					C70.8,8.1,70.7,8.1,70.7,8.1z"/>
			</g>
		</g>
		<path class="st6" d="M70.6,8c0,0.1-0.1,0.3-0.3,0.3C70.2,8.3,70,8.2,70,8c0-0.1,0.1-0.3,0.3-0.3C70.5,7.8,70.6,7.9,70.6,8z"/>
	</g>
	<g>
		<g>
			<path class="st4" d="M64.3,14.6c-0.5,0-0.9-0.4-0.9-0.9s0.4-0.9,0.9-0.9c0.1,0,0.2,0,0.2,0c-0.1-0.1-0.1-0.2-0.2-0.3
				c-0.1-0.5,0.1-1,0.6-1.1s1,0.1,1.1,0.6v0.1c0-0.1,0.1-0.1,0.2-0.2c0.4-0.3,0.9-0.2,1.2,0.2c0.3,0.4,0.2,0.9-0.2,1.2
				c-0.1,0.1-0.1,0.1-0.2,0.1c0.1,0,0.2,0.1,0.3,0.1c0.4,0.3,0.5,0.8,0.2,1.2s-0.8,0.5-1.2,0.2c-0.1,0-0.1-0.1-0.2-0.2
				c0,0.1,0,0.2,0,0.3c-0.1,0.5-0.6,0.7-1.1,0.6c-0.5-0.1-0.7-0.6-0.6-1.1c0-0.1,0.1-0.2,0.1-0.2C64.6,14.5,64.5,14.6,64.3,14.6z"/>
			<g>
				<path class="st6" d="M66.1,13.2C66.1,13.3,66.2,13.3,66.1,13.2c0.2,0.1,0.2,0,0.2,0C66.3,13.1,66.2,13.1,66.1,13.2
					C66.1,13,66.1,13.1,66.1,13.2z"/>
				<path class="st6" d="M65.6,13.1c0.1,0,0.1,0,0.2-0.1c0-0.1,0-0.1-0.1-0.2c-0.1,0-0.1,0-0.2,0.1C65.5,13,65.5,13,65.6,13.1z"/>
				<path class="st6" d="M65.3,13.4c0.1,0,0.1-0.1,0-0.2c0-0.1-0.1-0.1-0.2,0c-0.1,0-0.1,0.1,0,0.2C65.1,13.5,65.2,13.5,65.3,13.4z"
					/>
				<path class="st6" d="M65.4,13.9C65.4,13.8,65.3,13.8,65.4,13.9c-0.2-0.1-0.2,0-0.2,0C65.2,14,65.3,14,65.4,13.9
					C65.4,14,65.4,14,65.4,13.9z"/>
				<path class="st6" d="M65.9,14c-0.1,0-0.1,0-0.2,0.1c0,0.1,0,0.1,0.1,0.2c0.1,0,0.1,0,0.2-0.1C66,14.1,66,14,65.9,14z"/>
				<path class="st6" d="M66.2,13.7c-0.1,0-0.1,0.1,0,0.2c0,0.1,0.1,0.1,0.2,0c0.1,0,0.1-0.1,0-0.2C66.4,13.7,66.3,13.6,66.2,13.7z"
					/>
			</g>
		</g>
		<path class="st6" d="M66.1,13.5c0,0.2-0.2,0.4-0.3,0.4c-0.2,0-0.4-0.2-0.4-0.3c0-0.2,0.2-0.4,0.3-0.4C66,13.2,66.1,13.3,66.1,13.5
			z"/>
	</g>
	<g>
		<g>
			<path class="st4" d="M88.1,25.4c-0.4,0-0.7-0.3-0.7-0.7s0.3-0.7,0.7-0.7c0.1,0,0.1,0,0.2,0c-0.1-0.1-0.1-0.1-0.1-0.2
				c-0.1-0.4,0.1-0.8,0.5-0.9s0.8,0.1,0.9,0.5v0.1l0.1-0.1c0.3-0.2,0.8-0.2,1,0.1s0.2,0.8-0.1,1c-0.1,0-0.1,0.1-0.2,0.1
				c0.1,0,0.2,0.1,0.2,0.1c0.3,0.2,0.4,0.7,0.2,1s-0.7,0.4-1,0.2c-0.1,0-0.1-0.1-0.1-0.1c0,0.1,0,0.2,0,0.3
				c-0.1,0.4-0.5,0.6-0.9,0.5s-0.6-0.5-0.5-0.9c0-0.1,0.1-0.1,0.1-0.2C88.3,25.4,88.2,25.4,88.1,25.4z"/>
			<g>
				<path class="st6" d="M89.5,24.3C89.5,24.4,89.6,24.4,89.5,24.3c0.2,0.1,0.2,0,0.2,0C89.7,24.2,89.6,24.2,89.5,24.3
					C89.5,24.1,89.5,24.2,89.5,24.3z"/>
				<path class="st6" d="M89.1,24.2C89.2,24.2,89.2,24.2,89.1,24.2c0.1-0.2,0.1-0.2,0-0.2S89,24,89.1,24.2L89.1,24.2z"/>
				<path class="st6" d="M88.8,24.5C88.8,24.5,88.9,24.4,88.8,24.5C88.8,24.4,88.7,24.3,88.8,24.5C88.7,24.4,88.6,24.5,88.8,24.5
					L88.8,24.5z"/>
				<path class="st6" d="M88.9,24.9C88.9,24.8,88.8,24.8,88.9,24.9c-0.2-0.1-0.2,0-0.2,0C88.7,25,88.8,25,88.9,24.9
					C88.9,25,89,24.9,88.9,24.9z"/>
				<path class="st6" d="M89.3,25L89.3,25L89.3,25L89.3,25C89.4,25,89.4,25,89.3,25z"/>
				<path class="st6" d="M89.6,24.7C89.6,24.7,89.5,24.8,89.6,24.7C89.6,24.8,89.7,24.9,89.6,24.7C89.7,24.8,89.8,24.7,89.6,24.7
					C89.7,24.7,89.7,24.7,89.6,24.7z"/>
			</g>
		</g>
		<path class="st6" d="M89.5,24.6c0,0.2-0.1,0.3-0.3,0.3c-0.2,0-0.3-0.1-0.3-0.3s0.1-0.3,0.3-0.3C89.4,24.3,89.5,24.4,89.5,24.6z"/>
	</g>
	<g>
		<g>
			<path class="st4" d="M46.4,23.6c-0.4,0-0.7-0.3-0.7-0.7s0.3-0.7,0.7-0.7c0.1,0,0.1,0,0.2,0c-0.1-0.1-0.1-0.1-0.1-0.2
				c-0.1-0.4,0.1-0.8,0.5-0.9s0.8,0.1,0.9,0.5v0.1l0.1-0.1c0.3-0.2,0.8-0.2,1,0.1s0.2,0.8-0.1,1c-0.1,0-0.1,0.1-0.2,0.1
				c0.1,0,0.2,0.1,0.2,0.1c0.3,0.2,0.4,0.7,0.2,1s-0.7,0.4-1,0.2C48,24.1,48,24,48,24c0,0.1,0,0.2,0,0.3c-0.1,0.4-0.5,0.6-0.9,0.5
				s-0.6-0.5-0.5-0.9c0-0.1,0.1-0.1,0.1-0.2C46.6,23.6,46.5,23.6,46.4,23.6z"/>
			<g>
				<path class="st6" d="M47.9,22.4C47.9,22.5,48,22.5,47.9,22.4c0.2,0.1,0.2,0,0.2,0C48.1,22.3,48,22.3,47.9,22.4
					C47.9,22.3,47.9,22.4,47.9,22.4z"/>
				<path class="st6" d="M47.5,22.4C47.6,22.4,47.6,22.4,47.5,22.4c0.1-0.2,0.1-0.2,0-0.2S47.4,22.2,47.5,22.4
					C47.4,22.3,47.4,22.3,47.5,22.4z"/>
				<path class="st6" d="M47.2,22.7C47.2,22.7,47.3,22.6,47.2,22.7C47.2,22.6,47.1,22.5,47.2,22.7C47.1,22.6,47,22.7,47.2,22.7
					C47.1,22.7,47.2,22.7,47.2,22.7z"/>
				<path class="st6" d="M47.3,23c0-0.1-0.1-0.1-0.1-0.1c-0.1,0-0.1,0.1-0.1,0.1c0,0.1,0.1,0.1,0.1,0.1C47.3,23.1,47.3,23.1,47.3,23
					z"/>
				<path class="st6" d="M47.7,23.1L47.7,23.1L47.7,23.1L47.7,23.1C47.8,23.2,47.8,23.2,47.7,23.1z"/>
				<path class="st6" d="M48,22.9C48,22.9,47.9,23,48,22.9C48,23,48.1,23.1,48,22.9C48.1,23,48.2,22.9,48,22.9
					C48.1,22.8,48.1,22.8,48,22.9z"/>
			</g>
		</g>
		<path class="st6" d="M47.9,22.7c0,0.2-0.1,0.3-0.3,0.3s-0.3-0.1-0.3-0.3s0.1-0.3,0.3-0.3C47.8,22.5,47.9,22.6,47.9,22.7z"/>
	</g>
	<g>
		<g>
			<path class="st4" d="M39.3,43c-0.4,0-0.7-0.3-0.7-0.7s0.3-0.7,0.7-0.7c0.1,0,0.1,0,0.2,0c-0.1-0.1-0.1-0.1-0.1-0.2
				c-0.1-0.4,0.1-0.8,0.5-0.9c0.4-0.1,0.8,0.1,0.9,0.5v0.1l0.1-0.1c0.3-0.2,0.8-0.2,1,0.1s0.2,0.8-0.1,1c-0.1,0-0.1,0.1-0.2,0.1
				c0.1,0,0.2,0.1,0.2,0.1c0.3,0.2,0.4,0.7,0.2,1s-0.7,0.4-1,0.2c-0.1,0-0.1-0.1-0.1-0.1c0,0.1,0,0.2,0,0.3
				c-0.1,0.4-0.5,0.6-0.9,0.5s-0.6-0.5-0.5-0.9c0-0.1,0.1-0.1,0.1-0.2C39.5,42.9,39.4,43,39.3,43z"/>
			<g>
				<path class="st6" d="M40.7,41.8C40.7,41.9,40.8,41.9,40.7,41.8c0.2,0.1,0.2,0,0.2,0C40.9,41.7,40.8,41.7,40.7,41.8
					C40.8,41.7,40.7,41.7,40.7,41.8z"/>
				<path class="st6" d="M40.3,41.7C40.4,41.7,40.4,41.7,40.3,41.7c0.1-0.2,0.1-0.2,0-0.2S40.2,41.5,40.3,41.7
					C40.3,41.6,40.3,41.7,40.3,41.7z"/>
				<path class="st6" d="M40.1,42C40.1,42,40.2,41.9,40.1,42C40.1,41.9,40,41.8,40.1,42C40,41.9,39.9,42,40.1,42
					C40,42,40,42.1,40.1,42z"/>
				<path class="st6" d="M40.2,42.4C40.2,42.3,40.1,42.3,40.2,42.4c-0.2-0.1-0.2,0-0.2,0C40,42.5,40.1,42.5,40.2,42.4
					C40.2,42.5,40.2,42.5,40.2,42.4z"/>
				<path class="st6" d="M40.6,42.5L40.6,42.5L40.6,42.5L40.6,42.5L40.6,42.5z"/>
				<path class="st6" d="M40.9,42.2C40.9,42.2,40.8,42.3,40.9,42.2C40.9,42.3,41,42.4,40.9,42.2C41,42.3,41.1,42.2,40.9,42.2
					L40.9,42.2z"/>
			</g>
		</g>
		<path class="st6" d="M40.8,42.1c0,0.2-0.1,0.3-0.3,0.3s-0.3-0.1-0.3-0.3s0.1-0.3,0.3-0.3C40.6,41.8,40.8,42,40.8,42.1z"/>
	</g>
	<g>
		<g>
			<path class="st4" d="M41.4,16.5c-0.4,0-0.7-0.3-0.7-0.7c0-0.4,0.3-0.7,0.7-0.7c0.1,0,0.1,0,0.2,0c-0.1-0.1-0.1-0.1-0.1-0.2
				c-0.1-0.4,0.1-0.8,0.5-0.9c0.4-0.1,0.8,0.1,0.9,0.5v0.1l0.1-0.1c0.3-0.2,0.8-0.2,1,0.1s0.2,0.8-0.1,1c-0.1,0-0.1,0.1-0.2,0.1
				c0.1,0,0.2,0.1,0.2,0.1c0.3,0.2,0.4,0.7,0.2,1c-0.2,0.3-0.7,0.4-1,0.2C43,17,43,16.9,43,16.9c0,0.1,0,0.2,0,0.3
				c-0.1,0.4-0.5,0.6-0.9,0.5s-0.6-0.5-0.5-0.9c0-0.1,0.1-0.1,0.1-0.2C41.6,16.4,41.5,16.5,41.4,16.5z"/>
			<g>
				<path class="st6" d="M42.8,15.3c0,0.1,0.1,0.1,0.1,0.1c0.1,0,0.1-0.1,0.1-0.1c0-0.1-0.1-0.1-0.1-0.1
					C42.8,15.2,42.8,15.2,42.8,15.3z"/>
				<path class="st6" d="M42.4,15.2C42.5,15.2,42.5,15.2,42.4,15.2c0.1-0.2,0.1-0.2,0-0.2S42.3,15,42.4,15.2L42.4,15.2z"/>
				<path class="st6" d="M42.1,15.5C42.1,15.5,42.2,15.4,42.1,15.5C42.1,15.4,42,15.3,42.1,15.5C42,15.4,41.9,15.5,42.1,15.5
					C42,15.5,42.1,15.6,42.1,15.5z"/>
				<path class="st6" d="M42.3,15.9c0-0.1-0.1-0.1-0.1-0.1c-0.1,0-0.1,0.1-0.1,0.1c0,0.1,0.1,0.1,0.1,0.1S42.3,16,42.3,15.9z"/>
				<path class="st6" d="M42.7,16L42.7,16L42.7,16L42.7,16C42.7,16.1,42.7,16,42.7,16z"/>
				<path class="st6" d="M42.9,15.7C42.9,15.7,42.8,15.8,42.9,15.7C42.9,15.8,43,15.9,42.9,15.7C43,15.8,43.1,15.7,42.9,15.7
					C43,15.7,43,15.7,42.9,15.7z"/>
			</g>
		</g>
		<path class="st6" d="M42.8,15.6c0,0.2-0.1,0.3-0.3,0.3s-0.3-0.1-0.3-0.3s0.1-0.3,0.3-0.3S42.8,15.5,42.8,15.6z"/>
	</g>
	<g>
		<g>
			<path class="st4" d="M44.1,11.4c-0.4,0-0.6-0.3-0.6-0.7s0.3-0.6,0.7-0.6c0.1,0,0.1,0,0.2,0c0-0.1-0.1-0.1-0.1-0.2
				c-0.1-0.3,0.1-0.7,0.4-0.8s0.7,0.1,0.8,0.4v0.1l0.1-0.1c0.3-0.2,0.7-0.2,0.9,0.1s0.2,0.7-0.1,0.9c-0.1,0-0.1,0.1-0.2,0.1
				c0.1,0,0.1,0.1,0.2,0.1c0.3,0.2,0.4,0.6,0.2,0.9c-0.2,0.3-0.6,0.4-0.9,0.2c-0.1,0-0.1-0.1-0.1-0.1c0,0.1,0,0.2,0,0.2
				c-0.1,0.3-0.5,0.5-0.8,0.4s-0.5-0.5-0.4-0.8c0-0.1,0-0.1,0.1-0.2C44.3,11.4,44.2,11.4,44.1,11.4z"/>
			<g>
				<path class="st6" d="M45.4,10.3L45.4,10.3h0.2H45.4C45.4,10.2,45.4,10.3,45.4,10.3z"/>
				<path class="st6" d="M45,10.3L45,10.3L45,10.3L45,10.3L45,10.3z"/>
				<path class="st6" d="M44.8,10.5L44.8,10.5l-0.1-0.1L44.8,10.5C44.7,10.6,44.8,10.6,44.8,10.5z"/>
				<path class="st6" d="M44.9,10.9C44.9,10.8,44.9,10.8,44.9,10.9c-0.1-0.1-0.2,0-0.2,0S44.8,11,44.9,10.9
					C44.9,11,44.9,10.9,44.9,10.9z"/>
				<path class="st6" d="M45.3,11L45.3,11l-0.1,0.1L45.3,11L45.3,11z"/>
				<path class="st6" d="M45.5,10.7C45.5,10.7,45.4,10.8,45.5,10.7C45.5,10.8,45.6,10.9,45.5,10.7C45.6,10.8,45.7,10.7,45.5,10.7
					C45.6,10.7,45.6,10.7,45.5,10.7z"/>
			</g>
		</g>
		<path class="st6" d="M45.4,10.6c0,0.1-0.1,0.3-0.3,0.3c-0.1,0-0.3-0.1-0.3-0.3c0-0.1,0.1-0.3,0.3-0.3
			C45.3,10.4,45.4,10.5,45.4,10.6z"/>
	</g>
	<g>
		<g>
			<path class="st4" d="M62.7,40.5c-0.4,0-0.6-0.3-0.6-0.7s0.3-0.6,0.7-0.6c0.1,0,0.1,0,0.2,0c0-0.1-0.1-0.1-0.1-0.2
				c-0.1-0.3,0.1-0.7,0.4-0.8s0.7,0.1,0.8,0.4v0.1l0.1-0.1c0.3-0.2,0.7-0.2,0.9,0.1c0.2,0.3,0.2,0.7-0.1,0.9c-0.1,0-0.1,0.1-0.2,0.1
				c0.1,0,0.1,0.1,0.2,0.1c0.3,0.2,0.4,0.6,0.2,0.9c-0.2,0.3-0.6,0.4-0.9,0.2c-0.1,0-0.1-0.1-0.1-0.1c0,0.1,0,0.2,0,0.2
				c-0.1,0.3-0.5,0.5-0.8,0.4s-0.5-0.5-0.4-0.8c0-0.1,0-0.1,0.1-0.2C62.8,40.5,62.8,40.5,62.7,40.5z"/>
			<g>
				<path class="st6" d="M63.9,39.5L63.9,39.5h0.2H63.9C64,39.4,63.9,39.4,63.9,39.5z"/>
				<path class="st6" d="M63.6,39.4L63.6,39.4L63.6,39.4L63.6,39.4C63.5,39.3,63.5,39.4,63.6,39.4z"/>
				<path class="st6" d="M63.4,39.7L63.4,39.7L63.4,39.7L63.4,39.7C63.3,39.7,63.3,39.7,63.4,39.7z"/>
				<path class="st6" d="M63.5,40C63.5,40,63.4,39.9,63.5,40c-0.1-0.1-0.2,0-0.2,0C63.3,40.1,63.3,40.1,63.5,40
					C63.4,40.1,63.5,40.1,63.5,40z"/>
				<path class="st6" d="M63.8,40.1L63.8,40.1L63.8,40.1L63.8,40.1C63.9,40.2,63.8,40.1,63.8,40.1z"/>
				<path class="st6" d="M64.1,39.9C64.1,39.9,64,40,64.1,39.9C64.1,40,64.2,40.1,64.1,39.9C64.2,40,64.3,39.9,64.1,39.9
					C64.2,39.9,64.1,39.8,64.1,39.9z"/>
			</g>
		</g>
		<path class="st6" d="M64,39.8c0,0.1-0.1,0.3-0.3,0.3c-0.1,0-0.3-0.1-0.3-0.3c0-0.1,0.1-0.3,0.3-0.3S64,39.6,64,39.8z"/>
	</g>
	<g>
		<g>
			<path class="st4" d="M86.8,9.6c-0.4,0-0.6-0.3-0.6-0.7s0.3-0.6,0.7-0.6c0.1,0,0.1,0,0.2,0c0-0.1-0.1-0.1-0.1-0.2
				c-0.1-0.3,0.1-0.7,0.4-0.8s0.7,0.1,0.8,0.4v0.1l0.1-0.1c0.3-0.2,0.7-0.2,0.9,0.1c0.2,0.3,0.2,0.7-0.1,0.9c-0.1,0-0.1,0.1-0.2,0.1
				c0.1,0,0.1,0.1,0.2,0.1c0.3,0.2,0.4,0.6,0.2,0.9c-0.2,0.3-0.6,0.4-0.9,0.2c-0.1,0-0.1-0.1-0.1-0.1c0,0.1,0,0.2,0,0.2
				c-0.1,0.3-0.5,0.5-0.8,0.4S87,10,87.1,9.7c0-0.1,0-0.1,0.1-0.2C87,9.6,86.9,9.6,86.8,9.6z"/>
			<g>
				<path class="st6" d="M88.1,8.6L88.1,8.6h0.2H88.1C88.1,8.5,88.1,8.5,88.1,8.6z"/>
				<path class="st6" d="M87.7,8.5L87.7,8.5L87.7,8.5L87.7,8.5L87.7,8.5z"/>
				<path class="st6" d="M87.5,8.8L87.5,8.8L87.5,8.8L87.5,8.8C87.4,8.8,87.4,8.8,87.5,8.8z"/>
				<path class="st6" d="M87.6,9.1C87.6,9.1,87.5,9.1,87.6,9.1c-0.1-0.1-0.2,0-0.2,0C87.4,9.2,87.5,9.2,87.6,9.1
					C87.6,9.2,87.6,9.2,87.6,9.1z"/>
				<path class="st6" d="M87.9,9.2L87.9,9.2L87.9,9.2L87.9,9.2C88,9.3,88,9.2,87.9,9.2z"/>
				<path class="st6" d="M88.2,9C88.2,9,88.1,9.1,88.2,9C88.2,9.1,88.3,9.2,88.2,9C88.3,9.1,88.4,9,88.2,9L88.2,9z"/>
			</g>
		</g>
		<path class="st6" d="M88.1,8.9c0,0.1-0.1,0.3-0.3,0.3c-0.1,0-0.3-0.1-0.3-0.3c0-0.1,0.1-0.3,0.3-0.3S88.1,8.7,88.1,8.9z"/>
	</g>
	<g>
		<g>
			<path class="st4" d="M97.8,11.6c-0.4,0-0.6-0.3-0.6-0.7s0.3-0.6,0.7-0.6c0.1,0,0.1,0,0.2,0c0-0.1-0.1-0.1-0.1-0.2
				c-0.1-0.3,0.1-0.7,0.4-0.8s0.7,0.1,0.8,0.4v0.1l0.1-0.1c0.3-0.2,0.7-0.2,0.9,0.1c0.2,0.3,0.2,0.7-0.1,0.9c-0.1,0-0.1,0.1-0.2,0.1
				c0.1,0,0.1,0.1,0.2,0.1c0.3,0.2,0.4,0.6,0.2,0.9c-0.2,0.3-0.6,0.4-0.9,0.2c-0.1,0-0.1-0.1-0.1-0.1c0,0.1,0,0.2,0,0.2
				c-0.1,0.3-0.5,0.5-0.8,0.4S98,12,98.1,11.7c0-0.1,0-0.1,0.1-0.2C97.9,11.5,97.8,11.6,97.8,11.6z"/>
			<g>
				<path class="st6" d="M99,10.5L99,10.5h0.2H99L99,10.5z"/>
				<path class="st6" d="M98.7,10.5L98.7,10.5L98.7,10.5L98.7,10.5C98.6,10.4,98.6,10.4,98.7,10.5z"/>
				<path class="st6" d="M98.4,10.7L98.4,10.7L98.4,10.7L98.4,10.7C98.3,10.7,98.4,10.8,98.4,10.7z"/>
				<path class="st6" d="M98.5,11.1C98.5,11,98.5,11,98.5,11.1c-0.1-0.1-0.2,0-0.2,0C98.4,11.1,98.4,11.2,98.5,11.1
					C98.5,11.2,98.5,11.1,98.5,11.1z"/>
				<path class="st6" d="M98.9,11.2L98.9,11.2L98.9,11.2L98.9,11.2L98.9,11.2z"/>
				<path class="st6" d="M99.1,10.9C99.1,10.9,99,11,99.1,10.9C99.1,11,99.2,11.1,99.1,10.9C99.2,11,99.3,10.9,99.1,10.9
					C99.2,10.9,99.2,10.9,99.1,10.9z"/>
			</g>
		</g>
		<path class="st6" d="M99.1,10.8c0,0.1-0.1,0.3-0.3,0.3c-0.1,0-0.3-0.1-0.3-0.3c0-0.1,0.1-0.3,0.3-0.3
			C98.9,10.6,99.1,10.7,99.1,10.8z"/>
	</g>
	<g>
		<g>
			<path class="st4" d="M72.5,22.5c-0.4,0-0.6-0.3-0.6-0.7s0.3-0.6,0.7-0.6c0.1,0,0.1,0,0.2,0c0-0.1-0.1-0.1-0.1-0.2
				c-0.1-0.3,0.1-0.7,0.4-0.8c0.3-0.1,0.7,0.1,0.8,0.4v0.1l0.1-0.1c0.3-0.2,0.7-0.2,0.9,0.1c0.2,0.3,0.2,0.7-0.1,0.9
				c-0.1,0-0.1,0.1-0.2,0.1c0.1,0,0.1,0.1,0.2,0.1c0.3,0.2,0.4,0.6,0.2,0.9c-0.2,0.3-0.6,0.4-0.9,0.2c-0.1,0-0.1-0.1-0.1-0.1
				c0,0.1,0,0.2,0,0.2c-0.1,0.3-0.5,0.5-0.8,0.4s-0.5-0.5-0.4-0.8c0-0.1,0-0.1,0.1-0.2C72.7,22.5,72.6,22.5,72.5,22.5z"/>
			<g>
				<path class="st6" d="M73.8,21.4L73.8,21.4H74H73.8C73.8,21.3,73.8,21.4,73.8,21.4z"/>
				<path class="st6" d="M73.4,21.4L73.4,21.4L73.4,21.4L73.4,21.4C73.4,21.3,73.4,21.3,73.4,21.4z"/>
				<path class="st6" d="M73.2,21.6L73.2,21.6L73.2,21.6L73.2,21.6C73.1,21.7,73.1,21.7,73.2,21.6z"/>
				<path class="st6" d="M73.3,22C73.3,21.9,73.2,21.9,73.3,22c-0.1-0.1-0.2,0-0.2,0S73.2,22.1,73.3,22C73.3,22.1,73.3,22,73.3,22z"
					/>
				<path class="st6" d="M73.6,22.1L73.6,22.1L73.6,22.1L73.6,22.1C73.7,22.1,73.7,22.1,73.6,22.1z"/>
				<path class="st6" d="M73.9,21.8C73.9,21.8,73.8,21.9,73.9,21.8C73.9,21.9,74,22,73.9,21.8C74,21.9,74.1,21.8,73.9,21.8
					L73.9,21.8z"/>
			</g>
		</g>
		<path class="st6" d="M73.8,21.7c0,0.1-0.1,0.3-0.3,0.3c-0.1,0-0.3-0.1-0.3-0.3c0-0.1,0.1-0.3,0.3-0.3
			C73.7,21.5,73.8,21.6,73.8,21.7z"/>
	</g>
</g>
<g>
	<g>
		<g>
			<polygon class="st8" points="270.8,18.3 263.6,20.1 263,17.8 270.2,16 			"/>
			<polygon class="st8" points="275.3,36 268.1,37.9 267.5,35.5 274.7,33.7 			"/>
			<path class="st9" d="M274.1,35.6l-5.1,1.3c-0.2,0.1-0.4-0.1-0.5-0.3l0,0c-0.1-0.2,0.1-0.4,0.3-0.5l5.1-1.3
				c0.2-0.1,0.4,0.1,0.5,0.3l0,0C274.5,35.3,274.3,35.6,274.1,35.6z"/>
			<path class="st9" d="M269.4,17l-5.1,1.3c-0.2,0.1-0.4-0.1-0.5-0.3l0,0c-0.1-0.2,0.1-0.4,0.3-0.5l5.1-1.3c0.2-0.1,0.4,0.1,0.5,0.3
				l0,0C269.8,16.7,269.6,16.9,269.4,17z"/>
			<ellipse class="st10" cx="269.2" cy="26.8" rx="8.8" ry="8.8"/>
			<path class="st11" d="M277.8,24.7c1.2,4.7-1.6,9.5-6.5,10.7c-4.2,1-8.5-1.1-10.2-4.9c1.1-0.5,2.5,1.5,3.6,0.5
				c1.2-1,0-3.3,1.6-3.2c1.6,0.1,1.4,1.7,3.6,0.6c2.3-1.1,1-2.4,2.7-2.8s2.2,1.6,3.4,1c0.8-0.4,0.8-1.6,1.7-2.3
				C277.7,24.6,277.8,24.7,277.8,24.7z"/>
			<g>
				<path class="st12" d="M267.5,34.9c-1.3-0.5-2.6-1.5-3.4-2.7c-0.9-1.2-1.4-2.6-1.8-4c-0.3-1.4-0.4-3,0-4.4c0.3-1.4,0.9-2.9,2-3.8
					c-0.8,1.2-1.2,2.6-1.4,3.9c-0.2,1.3-0.1,2.8,0.2,4.1c0.3,1.3,0.8,2.7,1.5,3.9C265.4,33.1,266.3,34.1,267.5,34.9z"/>
			</g>
			<g>
				<path class="st12" d="M270.2,18.5c1.4,0.4,2.7,1.3,3.6,2.4s1.6,2.5,2,3.9s0.5,3,0.3,4.4s-0.7,2.9-1.7,4c0.7-1.2,1-2.7,1.1-4
					c0.1-1.4-0.1-2.8-0.5-4.1s-0.9-2.6-1.7-3.7C272.5,20.1,271.4,19.1,270.2,18.5z"/>
			</g>
			<g>
				<path class="st12" d="M269.4,34.4c-1-0.9-1.6-2-2.3-3.3c-0.6-1.2-1-2.5-1.3-3.7c-0.3-1.3-0.5-2.6-0.5-3.9s0.1-2.7,0.6-3.9
					c-0.2,1.3-0.2,2.6-0.1,3.9c0.2,1.2,0.4,2.6,0.7,3.8c0.3,1.2,0.7,2.5,1.1,3.7C268,32.1,268.6,33.3,269.4,34.4z"/>
			</g>
			<g>
				<path class="st12" d="M268.6,18.9c1,0.8,1.8,1.9,2.5,3.2c0.6,1.2,1,2.5,1.4,3.7c0.3,1.3,0.6,2.6,0.6,3.9c0.1,1.3,0,2.7-0.4,3.9
					c0.1-1.3,0-2.6-0.1-3.9c-0.2-1.2-0.4-2.6-0.8-3.8c-0.3-1.2-0.7-2.5-1.2-3.7C270,21.1,269.5,19.9,268.6,18.9z"/>
			</g>
			<g>
				<path class="st12" d="M267.2,19.2c0.9,2.4,1.6,4.8,2.3,7.3c0.6,2.5,1.1,4.9,1.5,7.5c-0.9-2.4-1.6-4.8-2.3-7.3
					C268.1,24.2,267.5,21.8,267.2,19.2z"/>
			</g>
			<path class="st10" d="M268.1,37.9c0,0-0.8,2.8,0.4,2.9c1.2,0.2,0.7-1.2,1.4-1.3c0.7-0.1,1,1.1,1.8,0.9s0-1.4,0.8-1.6
				c0.8-0.2,1.4,1.6,1.9,0.9c0.6-0.8-0.5-1.9,0.1-1.9s0.7,1.3,1.4,1c0.7-0.4,0.5-1.2-0.9-2.6L268.1,37.9z"/>
			<path class="st11" d="M269,37.7c0,0-0.7,1.6,0.2,1.7c0.9,0,0.6-0.8,1.2-0.8c0.5-0.1,0.7,0.6,1.3,0.4s0-0.8,0.7-1
				c0.6-0.2,1,0.9,1.4,0.4c0.5-0.5-0.3-1.1,0.2-1.2c0.5,0,0.5,0.8,1,0.5c0.6-0.3,0.4-0.7-0.6-1.5L269,37.7z"/>
			<path class="st13" d="M272.1,38.2c0,0,2.3,4.5,1.8,7.1"/>
			<path class="st8" d="M273.7,46.8L273.7,46.8c-0.4-0.1-0.7-0.5-0.7-0.9l0.2-1.3c0.1-0.4,0.5-0.7,0.9-0.7l0,0
				c0.4,0.1,0.7,0.5,0.7,0.9l-0.2,1.3C274.5,46.5,274.2,46.8,273.7,46.8z"/>
			<path class="st11" d="M273.1,45.7c0,0,0.7,0.5,1.6,0.2c0,0,0.2,4.2,0.6,5s-1.3,1-1.5,0.2c-0.1-0.8-0.9,0.9-1.7,0.2
				c-0.8-0.7-0.7-0.5-1.6-0.4C269.5,51.1,272.1,46.7,273.1,45.7z"/>
			<g>
				<path class="st12" d="M265.4,17.6c-1.1-0.7-2.2-1.7-2.7-3.1c-0.3-0.6-0.3-1.5,0.2-2.2s1.1-0.9,1.8-1.2c0.7-0.2,1.4-0.3,2.3,0
					c0.7,0.4,1.1,1.1,1.2,1.8c0.2,1.4-0.1,2.8-0.5,4c0.1-0.6,0.1-1.3,0.1-1.9c0-0.6,0-1.3-0.2-1.9c-0.2-0.6-0.4-1.1-0.9-1.3
					s-1.1-0.1-1.6,0.1c-0.6,0.2-1.1,0.4-1.4,0.9c-0.3,0.4-0.4,1-0.2,1.5c0.2,0.6,0.5,1.1,0.9,1.6C264.5,16.6,265,17.1,265.4,17.6z"
					/>
			</g>
		</g>
		<path class="st14" d="M240,0c0,0,15.2,22.3,49,8.3"/>
	</g>
	<g>
		
			<rect x="238.9" y="15.9" transform="matrix(9.576610e-02 -0.9954 0.9954 9.576610e-02 197.8617 256.3799)" class="st8" width="2.3" height="6.8"/>
		
			<rect x="237.3" y="32.9" transform="matrix(9.575826e-02 -0.9954 0.9954 9.575826e-02 179.4889 270.1579)" class="st8" width="2.3" height="6.8"/>
		<path class="st9" d="M240.9,36.9l-4.9-0.5c-0.2,0-0.4-0.2-0.3-0.4l0,0c0-0.2,0.2-0.4,0.4-0.3l4.9,0.5c0.2,0,0.4,0.2,0.3,0.4l0,0
			C241.3,36.8,241.1,36.9,240.9,36.9z"/>
		<path class="st9" d="M242.6,19l-4.9-0.5c-0.2,0-0.4-0.2-0.3-0.4l0,0c0-0.2,0.2-0.4,0.4-0.3l4.9,0.5c0.2,0,0.4,0.2,0.3,0.4l0,0
			C243,18.9,242.9,19,242.6,19z"/>
		<ellipse class="st10" cx="239.3" cy="27.7" rx="8.2" ry="8.2"/>
		<path class="st11" d="M247.6,28.4c-0.4,4.5-4.5,7.9-9,7.4c-4-0.4-7.1-3.6-7.4-7.5c1.2-0.1,1.6,2.1,3,1.6c1.4-0.6,1-2.9,2.4-2.3
			s0.7,2,3,1.7s1.6-1.7,3.2-1.6c1.6,0.2,1.4,2.1,2.6,1.9c0.9-0.1,1.2-1.1,2.2-1.4C247.6,28.3,247.6,28.3,247.6,28.4z"/>
		<g>
			<path class="st12" d="M235.4,34.2c-1.1-0.8-1.8-2.1-2.2-3.4c-0.4-1.3-0.5-2.8-0.4-4.1c0.2-1.4,0.6-2.7,1.4-3.9
				c0.7-1.2,1.8-2.2,3.1-2.7c-1.1,0.8-1.8,1.9-2.4,3c-0.6,1.2-0.9,2.4-1.1,3.7c-0.2,1.3-0.1,2.6,0.1,3.8
				C234.1,31.9,234.6,33.1,235.4,34.2z"/>
		</g>
		<g>
			<path class="st12" d="M242.9,20.6c1.1,0.7,2,1.9,2.5,3.2c0.5,1.3,0.7,2.7,0.6,4.1c-0.1,1.4-0.5,2.8-1.1,4
				c-0.7,1.2-1.6,2.3-2.8,2.9c1-0.9,1.7-2.1,2.2-3.2c0.5-1.2,0.8-2.5,0.9-3.7c0.1-1.3,0-2.6-0.4-3.8
				C244.3,22.8,243.8,21.6,242.9,20.6z"/>
		</g>
		<g>
			<path class="st12" d="M237.1,34.3c-0.6-1.1-0.9-2.3-1.1-3.6c-0.1-1.2-0.1-2.5,0-3.7s0.4-2.5,0.8-3.6c0.4-1.2,1-2.3,1.9-3.2
				c-0.6,1.1-0.9,2.2-1.2,3.4c-0.2,1.2-0.4,2.3-0.6,3.5c-0.1,1.2-0.2,2.4-0.2,3.6C236.8,31.9,236.9,33.1,237.1,34.3z"/>
		</g>
		<g>
			<path class="st12" d="M241.3,20.4c0.7,1,1.1,2.3,1.2,3.5c0.2,1.2,0.2,2.5,0.1,3.7c-0.1,1.2-0.3,2.5-0.7,3.7
				c-0.4,1.2-0.9,2.4-1.7,3.3c0.5-1.1,0.8-2.3,1-3.5c0.2-1.2,0.4-2.4,0.5-3.6s0.1-2.4,0.1-3.6C241.8,22.8,241.7,21.6,241.3,20.4z"/>
		</g>
		<g>
			<path class="st12" d="M240.1,20.3c0.2,2.4,0,4.8-0.2,7.1c-0.2,2.4-0.6,4.7-1.2,7c-0.2-2.4,0-4.8,0.2-7.1S239.4,22.6,240.1,20.3z"
				/>
		</g>
		<path class="st10" d="M235,37c0,0-1.6,2.1-0.5,2.7c1,0.5,1.1-0.9,1.7-0.7s0.5,1.3,1.3,1.4c0.8,0,0.4-1.2,1.2-1.2
			c0.8,0.1,0.7,1.9,1.5,1.4s0.1-1.9,0.7-1.7s0.2,1.4,0.9,1.3s0.8-0.9,0-2.6L235,37z"/>
		<path class="st11" d="M235.8,37.1c0,0-1.2,1.2-0.4,1.6c0.8,0.3,0.8-0.5,1.3-0.4s0.4,0.8,1,0.8s0.3-0.7,0.9-0.7
			c0.6,0.1,0.6,1.1,1.2,0.9c0.6-0.3,0.1-1.1,0.5-1c0.5,0.1,0.2,0.8,0.7,0.8c0.6,0,0.6-0.5,0-1.5L235.8,37.1z"/>
		<path class="st15" d="M238.4,38.5c0,0,0.5,4.6-0.6,6.8"/>
		<path class="st8" d="M237.6,46.5L237.6,46.5c-0.4,0-0.7-0.4-0.7-0.8l0.1-1.3c0-0.4,0.4-0.7,0.8-0.7l0,0c0.4,0,0.7,0.4,0.7,0.8
			l-0.1,1.3C238.4,46.2,238,46.5,237.6,46.5z"/>
		<path class="st11" d="M236.9,45.5c0,0,0.7,0.4,1.5,0.1c0,0,0.5,3.9,1,4.6c0.4,0.8-1.2,1-1.4,0.3s-0.8,0.9-1.6,0.3
			c-0.8-0.6-0.7-0.5-1.6-0.2C234,50.8,236.2,46.5,236.9,45.5z"/>
		<g>
			<path class="st12" d="M238.9,18.3c-0.8-1-1.4-2.1-1.5-3.5c-0.1-0.7,0.2-1.5,0.9-2s1.4-0.5,2.1-0.5c0.7,0.1,1.4,0.2,2,0.7
				c0.6,0.6,0.6,1.5,0.5,2.1c-0.3,1.3-1,2.4-1.8,3.4c0.5-1.1,0.9-2.3,1-3.5c0-0.6-0.1-1.1-0.4-1.4c-0.3-0.3-0.9-0.4-1.4-0.4
				s-1.1,0-1.5,0.3c-0.4,0.2-0.6,0.7-0.6,1.2C238.1,15.9,238.5,17.1,238.9,18.3z"/>
		</g>
	</g>
	<path class="st14" d="M206.5,0c0,0,22.6,27.7,44.1,8.6"/>
</g>
<g>
	<path class="st0" d="M9.1,135.7H5.9v-1.2h7.8v1.2h-3.2v9.4H9.1V135.7z"/>
	<path class="st0" d="M16.9,141.8l-1.1,3.3h-1.4l3.6-10.6h1.6l3.6,10.6h-1.5l-1.1-3.3H16.9z M20.4,140.8l-1-3
		c-0.2-0.7-0.4-1.3-0.5-1.9l0,0c-0.2,0.6-0.3,1.3-0.5,1.9l-1,3.1h3V140.8z M19.6,147.2c0,0.4-0.3,0.8-0.8,0.8s-0.8-0.4-0.8-0.8
		s0.3-0.8,0.8-0.8C19.2,146.4,19.6,146.8,19.6,147.2z"/>
	<path class="st0" d="M26.4,134.7c0.7-0.1,1.5-0.2,2.6-0.2c1.3,0,2.3,0.3,3,0.9c0.6,0.5,0.9,1.3,0.9,2.2c0,1-0.3,1.7-0.8,2.3
		c-0.7,0.8-1.9,1.2-3.2,1.2c-0.4,0-0.8,0-1.1-0.1v4.2h-1.4C26.4,145.2,26.4,134.7,26.4,134.7z M27.8,139.8c0.3,0.1,0.7,0.1,1.1,0.1
		c1.6,0,2.6-0.8,2.6-2.3c0-1.4-1-2.1-2.5-2.1c-0.6,0-1,0-1.3,0.1L27.8,139.8L27.8,139.8z"/>
	<path class="st0" d="M48.6,144.8c-0.5,0.3-1.5,0.5-2.8,0.5c-3,0-5.2-1.9-5.2-5.3c0-3.3,2.2-5.5,5.5-5.5c1.3,0,2.1,0.3,2.5,0.5
		l-0.3,1.1c-0.5-0.3-1.3-0.4-2.1-0.4c-2.5,0-4.1,1.6-4.1,4.4c0,2.6,1.5,4.2,4.1,4.2c0.8,0,1.7-0.2,2.2-0.4L48.6,144.8z"/>
	<path class="st0" d="M53.2,134.6v4.4h5.1v-4.4h1.4v10.6h-1.4v-5h-5.1v5h-1.4v-10.6H53.2z"/>
	<path class="st0" d="M66.6,132.2l-2,1.8h-1.1l1.4-1.8H66.6z M65,134.6v10.6h-1.4v-10.6H65z"/>
	<path class="st0" d="M72.6,139.2h1.3v-4.5c0.8-0.1,1.8-0.2,2.9-0.2c1.9,0,3.4,0.5,4.3,1.3c0.9,0.9,1.5,2.1,1.5,3.8
		s-0.5,3.1-1.5,4.1s-2.6,1.5-4.7,1.5c-1,0-1.8,0-2.5-0.1v-4.8h-1.3C72.6,140.3,72.6,139.2,72.6,139.2z M78.1,140.3h-2.8v3.8
		c0.3,0,0.8,0.1,1.4,0.1c2.9,0,4.5-1.6,4.5-4.5c0-2.5-1.4-4.1-4.3-4.1c-0.7,0-1.2,0.1-1.6,0.1v3.5h2.8V140.3z"/>
	<path class="st0" d="M87.3,134.6v10.6h-1.4v-10.6H87.3z"/>
	<path class="st0" d="M96.7,140.2h-4.1v3.8h4.6v1.1h-5.9v-10.6H97v1.1h-4.3v3.3h4.1L96.7,140.2L96.7,140.2z M94.6,132.2l1.6,1.8
		h-1.1l-1-1.1l0,0l-1,1.1H92l1.6-1.8H94.6z M93.3,147.2c0-0.4,0.3-0.8,0.8-0.8c0.4,0,0.8,0.4,0.8,0.8s-0.3,0.8-0.8,0.8
		C93.7,148,93.3,147.6,93.3,147.2z"/>
	<path class="st0" d="M100.5,145.1v-10.6h1.5l3.4,5.3c0.8,1.2,1.4,2.4,1.9,3.4l0,0c-0.1-1.4-0.2-2.7-0.2-4.3v-4.4h1.3v10.6H107
		l-3.4-5.4c-0.7-1.2-1.4-2.4-2-3.5l0,0c0.1,1.3,0.1,2.6,0.1,4.4v4.5H100.5z"/>
	<path class="st0" d="M118.6,135.7h-3.2v-1.2h7.8v1.2H120v9.4h-1.4V135.7z"/>
	<path class="st0" d="M135.1,132.9c0.2,0.3,0.3,0.7,0.3,1.2c0,0.8-0.5,1.3-1.4,1.3h-0.2v5.3c0,3.2-1.7,4.6-4,4.6
		c-2.2,0-3.8-1.2-3.8-4.5v-6.2h1.4v6.3c0,2.4,1.1,3.4,2.5,3.4c1.6,0,2.6-1,2.6-3.4v-6.3h1.2c0.5,0,0.7-0.2,0.7-0.6
		c0-0.3-0.1-0.6-0.3-0.9L135.1,132.9z M129.7,133.8c0.3-0.7,0.8-0.8,0.8-1.3c0-0.3-0.2-0.5-0.5-0.5s-0.6,0.3-0.8,0.5l-0.5-0.3
		c0.3-0.6,0.8-1,1.6-1c0.7,0,1.3,0.5,1.3,1.1c0,0.8-0.7,1-1.1,1.7L129.7,133.8z"/>
	<path class="st0" d="M141.8,139.2h1.3v-4.5c0.8-0.1,1.8-0.2,2.9-0.2c1.9,0,3.4,0.5,4.3,1.3c0.9,0.9,1.5,2.1,1.5,3.8
		s-0.5,3.1-1.5,4.1s-2.6,1.5-4.7,1.5c-1,0-1.8,0-2.5-0.1v-4.8h-1.3V139.2z M147.3,140.3h-2.8v3.8c0.3,0,0.8,0.1,1.4,0.1
		c2.9,0,4.5-1.6,4.5-4.5c0-2.5-1.4-4.1-4.3-4.1c-0.7,0-1.2,0.1-1.6,0.1v3.5h2.8L147.3,140.3L147.3,140.3z"/>
	<path class="st0" d="M156.6,141.8l-1.1,3.3h-1.4l3.6-10.6h1.6l3.6,10.6h-1.5l-1.1-3.3H156.6z M159,132.2l1.5,1.8h-1.1l-0.9-1.1l0,0
		l-0.9,1.1h-1.1l1.5-1.8H159z M160.1,140.8l-1-3c-0.2-0.7-0.4-1.3-0.5-1.9l0,0c-0.2,0.6-0.3,1.3-0.5,1.9l-1,3.1h3V140.8z
		 M160.4,131.3l1.1,1.6h-0.8l-1.7-1.6H160.4z"/>
	<path class="st0" d="M167,134.6v6.3c0,2.4,1,3.4,2.5,3.4c1.6,0,2.6-1,2.6-3.4v-6.3h1.4v6.2c0,3.2-1.7,4.6-4,4.6
		c-2.2,0-3.8-1.2-3.8-4.5v-6.2h1.3V134.6z"/>
	<path class="st0" d="M183.6,135.7h-3.2v-1.2h7.8v1.2H185v9.4h-1.4L183.6,135.7L183.6,135.7z"/>
	<path class="st0" d="M200.1,132.9c0.2,0.3,0.3,0.7,0.3,1.2c0,0.8-0.5,1.3-1.4,1.3h-0.2v5.3c0,3.2-1.7,4.6-4,4.6
		c-2.2,0-3.8-1.2-3.8-4.5v-6.2h1.4v6.3c0,2.4,1,3.4,2.5,3.4c1.6,0,2.6-1,2.6-3.4v-6.3h1.2c0.5,0,0.7-0.2,0.7-0.6
		c0-0.3-0.1-0.6-0.3-0.9L200.1,132.9z"/>
	<path class="st0" d="M209.3,135.7h-3.2v-1.2h7.8v1.2h-3.2v9.4h-1.4L209.3,135.7L209.3,135.7z"/>
	<path class="st0" d="M217.2,141.8l-1.1,3.3h-1.4l3.6-10.6h1.6l3.6,10.6H222l-1.1-3.3H217.2z M218.5,132.2l1.4,1.8h-1.1l-2-1.8
		H218.5z M220.7,140.8l-1-3c-0.2-0.7-0.4-1.3-0.5-1.9l0,0c-0.2,0.6-0.3,1.3-0.5,1.9l-1,3.1h3V140.8z"/>
	<path class="st0" d="M228,134.6v10.6h-1.4v-10.6H228z"/>
	<path class="st0" d="M244.2,144.8c-0.5,0.3-1.5,0.5-2.8,0.5c-3,0-5.2-1.9-5.2-5.3c0-3.3,2.2-5.5,5.5-5.5c1.3,0,2.1,0.3,2.5,0.5
		l-0.3,1.1c-0.5-0.3-1.3-0.4-2.1-0.4c-2.5,0-4.1,1.6-4.1,4.4c0,2.6,1.5,4.2,4.1,4.2c0.8,0,1.7-0.2,2.2-0.4L244.2,144.8z"/>
	<path class="st0" d="M248.9,134.6v4.4h5.1v-4.4h1.4v10.6H254v-5h-5.1v5h-1.4v-10.6H248.9z"/>
	<path class="st0" d="M262.3,132.2l-2,1.8h-1.1l1.4-1.8H262.3z M260.7,134.6v10.6h-1.4v-10.6H260.7z"/>
	<path class="st0" d="M264.6,145.1v-10.6h1.5l3.4,5.3c0.8,1.2,1.4,2.4,1.9,3.4l0,0c-0.1-1.4-0.2-2.7-0.2-4.3v-4.4h1.3v10.6h-1.4
		l-3.4-5.4c-0.7-1.2-1.4-2.4-2-3.5l0,0c0.1,1.3,0.1,2.6,0.1,4.4v4.5H264.6z"/>
	<path class="st0" d="M277.8,134.6v4.4h5.1v-4.4h1.4v10.6h-1.4v-5h-5.1v5h-1.4v-10.6H277.8z"/>
</g>
</svg>
